<?xml version="1.0" standalone="no"?>
<!DOCTYPE svg PUBLIC "-//W3C//DTD SVG 1.1//EN" "http://www.w3.org/Graphics/SVG/1.1/DTD/svg11.dtd" >
<!--
2013-9-30: Created.
-->
<svg>
<metadata>
Created by iconfont
</metadata>
<defs>

<font id="iconfont" horiz-adv-x="1024" >
  <font-face
    font-family="iconfont"
    font-weight="500"
    font-stretch="normal"
    units-per-em="1024"
    ascent="896"
    descent="-128"
  />
    <missing-glyph />
    
    <glyph glyph-name="xiangji" unicode="&#58930;" d="M928-42.688l-832 0c-52.992 0-96 44.096-96 98.432L0 580.928c0 54.4 43.008 98.432 96 98.432L256 679.36 256 712.192c0 54.4 43.008 98.496 96 98.496l320 0c52.992 0 96-44.096 96-98.496l0-32.832 160 0c52.992 0 96-44.096 96-98.432l0-525.12C1024 1.408 980.992-42.688 928-42.688zM934.976 552.576c0 25.408-20.288 45.952-45.312 45.952l-196.352 0L693.312 675.136c0 25.408-20.288 45.952-45.312 45.952L376.064 721.088c-25.024 0-45.312-20.608-45.312-45.952l0-76.608L134.336 598.528c-25.024 0-45.312-20.608-45.312-45.952l0-459.712c0-25.408 20.288-45.952 45.312-45.952l755.264 0c25.024 0 45.312 20.608 45.312 45.952L934.912 552.576zM512 121.408c-123.712 0-224 102.848-224 229.76 0 126.912 100.288 229.76 224 229.76s224-102.848 224-229.76C736 224.32 635.712 121.408 512 121.408zM512 515.264c-88.384 0-160-73.472-160-164.096 0-90.624 71.616-164.096 160-164.096s160 73.472 160 164.096C672 441.792 600.384 515.264 512 515.264zM512 416.832c-35.328 0-64-29.376-64-65.664-11.008 0-22.016 0-32 0 0 54.4 42.944 98.432 96 98.432l0 0L512 416.832z"  horiz-adv-x="1024" />

    
    <glyph glyph-name="dianzan" unicode="&#58901;" d="M946.026 424.233499c0-36.496562-10.066693-69.91527-30.175764-100.254845 3.693424-13.533598 5.546535-27.677647 5.546535-42.438547 0-31.580954-7.810454-61.110433-23.408325-88.573078 1.236261-8.611591 1.854391-17.438185 1.854391-26.450345 0-41.419848-12.321653-77.91641-36.952161-109.483287 0.401849-56.998523-17.042735-102.009413-52.349108-135.010916-35.314052-33.001502-81.906742-49.510572-139.795986-49.510572l-22.172064 0-57.269835 0c-39.415724 0-78.318259 4.611022-116.707604 13.838184-38.388066 9.220763-82.830738 22.658378-133.325455 40.28213-47.635705 16.411807-75.966036 24.606192-84.989714 24.606192L78.919752-48.761585c-21.766376 0-40.33972 7.688875-55.732827 23.066626C7.789977-10.314649 0.090864 8.231819 0.090864 29.967481L0.090864 423.624327c0 21.727983 7.699113 40.28213 23.09606 55.65988 15.393108 15.37775 33.966451 23.066626 55.732827 23.066626l168.739329 0c14.778817 9.837614 42.900545 41.613094 84.371584 95.339237 23.802495 30.749102 45.774915 56.990844 65.891664 78.726506 9.85809 10.247141 17.139998 27.77363 21.867479 52.588426 4.713403 24.807117 10.974052 50.744273 18.784506 77.812748 7.787418 27.060797 20.519878 49.204706 38.180743 66.427889 16.007399 15.162749 34.487319 22.754361 55.424402 22.754361 34.487319 0 65.482137-6.670176 92.993414-19.988772 27.503598-13.332673 48.439402-34.13922 62.81765-62.433718 14.361611-28.286819 21.553934-66.427889 21.553934-114.398894 0-38.13979-9.85809-77.500484-29.558913-118.101277l108.382682 0c42.699621 0 79.651782-15.586353 110.855203-46.743703C930.42045 503.168608 946.026 466.464723 946.026 424.233499zM146.047677 41.656926c7.791257 7.786138 11.700963 17.01458 11.700963 27.677647 0 10.655389-3.908426 19.883831-11.700963 27.677647-7.806614 7.786138-17.042735 11.689445-27.71604 11.689445-10.680984 0-19.917105-3.904587-27.712201-11.689445-7.802775-7.792537-11.700963-17.020979-11.700963-27.677647 0-10.663067 3.898188-19.891509 11.700963-27.677647 7.795096-7.792537 17.031217-11.689445 27.712201-11.689445C129.004942 29.967481 138.241062 33.864389 146.047677 41.656926zM867.200952 423.624327c0 20.910208-8.011378 39.255752-24.018777 55.050708-16.015077 15.779599-34.286394 23.677077-54.812671 23.677077L571.595182 502.352113c0 23.77306 9.850412 56.485334 29.558913 98.106106 19.708502 41.613094 29.558913 74.518613 29.558913 98.722957 0 40.177189-6.566514 69.907591-19.700823 89.18225-13.148386 19.26698-39.415724 28.911348-78.832727 28.911348-10.677145-10.670746-18.472241-28.093573-23.400646-52.28384-4.928405-24.197945-11.190334-49.926498-18.784506-77.194618-7.601851-27.275799-19.812163-49.725574-36.638617-67.349325-9.039036-9.437045-24.84551-28.093573-47.419423-55.972145-1.645788-2.052756-6.373269-8.209743-14.168365-18.449205-7.802775-10.25482-14.265628-18.665487-19.394957-25.223043-5.137008-6.558836-12.22567-15.281767-21.249348-26.13808-9.031357-10.87167-17.243659-19.891509-24.629228-27.060797-7.393248-7.183365-15.300964-14.456314-23.714191-21.840603-8.420905-7.376611-16.625529-12.916747-24.629228-16.605053-8.011378-3.688305-15.300964-5.532458-21.867479-5.532458l-19.708502 0 0-393.656846 19.708502 0c5.331534 0 11.800785-0.609172 19.402636-1.844153 7.586493-1.227302 14.361611-2.565945 20.318953-3.992891 5.948384-1.442304 13.751159-3.695984 23.400646-6.767439 9.641809-3.079133 16.834132-5.442874 21.553934-7.072025 4.719802-1.643228 12.009388-4.216852 21.867479-7.688875 9.850412-3.49506 15.798796-5.643798 17.854111-6.461573 86.627824-29.937726 156.831042-44.89955 210.623734-44.89955l74.513494 0c78.832727 0 118.240772 34.236483 118.240772 102.715848 0 10.663067-1.027658 22.145189-3.075294 34.443806 12.315254 6.558836 22.060724 17.319166 29.253048 32.295068 7.176966 14.961824 10.773128 30.034989 10.773128 45.204136 0 15.170427-3.693424 29.313197-11.086672 42.446226 21.756138 20.494282 32.640606 44.89955 32.640606 73.194048 0 10.239462-2.055315 21.616643-6.156987 34.131542-4.109351 12.50722-9.23996 22.241172-15.396947 29.217214 13.134309 0.401849 24.116039 10.046217 32.946472 28.911348C862.778057 392.652544 867.200952 409.265275 867.200952 423.624327z"  horiz-adv-x="1024" />

    
    <glyph glyph-name="fenxiang" unicode="&#59301;" d="M1002.624 405.354667c-11.84 0-21.376-9.557333-21.376-21.354667l0-343.424c0-69.376-56.448-125.824-125.824-125.824L168.554667-85.248c-69.376 0-125.824 56.448-125.824 125.824L42.730667 727.466667c0 69.376 56.448 125.824 125.824 125.824L512 853.290667c11.84 0 21.354667 9.557333 21.354667 21.354667C533.354667 886.442667 523.84 896 512 896L168.554667 896C75.605333 896 0 820.394667 0 727.445333L0 40.533333C0-52.373333 75.605333-128 168.554667-128L855.466667-128c92.906667 0 168.533333 75.626667 168.533333 168.533333L1024 384C1024 395.797333 1014.464 405.354667 1002.624 405.354667zM453.824 625.834667l-177.685333-177.685333c-8.362667-8.341333-8.362667-21.845333 0-30.208 4.16-4.138667 9.642667-6.250667 15.104-6.250667 5.482667 0 10.944 2.090667 15.104 6.250667l177.685333 177.685333c23.765333 23.786667 55.338667 36.864 88.917333 36.864l378.112 0-184.32-184.341333c-8.405333-8.341333-8.405333-21.845333 0-30.208 4.117333-4.138667 9.621333-6.250667 15.082667-6.250667 5.504 0 10.986667 2.090667 15.125333 6.250667l220.8 220.8c0.341333 0.341333 0.448 0.810667 0.768 1.173333 1.514667 1.749333 2.922667 3.605333 3.818667 5.781333 1.002667 2.410667 1.429333 4.970667 1.514667 7.552 0 0.213333 0.128 0.405333 0.128 0.618667 0 0 0 0 0 0 0 2.773333-0.554667 5.546667-1.642667 8.170667-1.088 2.602667-2.624 4.970667-4.608 6.933333 0 0 0 0.021333-0.021333 0.042667L796.949333 889.728c-8.384 8.362667-21.845333 8.362667-30.208 0-8.405333-8.362667-8.405333-21.845333 0-30.208l184.32-184.32L572.949333 675.2C527.978667 675.2 485.653333 657.664 453.824 625.834667z"  horiz-adv-x="1024" />

    
    <glyph glyph-name="3shoujia" unicode="&#59489;" d="M873.813333 281.6l-273.066667 0L600.746667 404.48l273.066667 0c47.786667 0 81.92 34.133333 81.92 75.093333S914.773333 554.666667 873.813333 554.666667l-136.533333 0 136.533333 245.76c20.48 27.306667 0 68.266667-40.96 88.746667C785.066667 902.826667 737.28 896 723.626667 868.693333L546.133333 554.666667C546.133333 554.666667 546.133333 554.666667 546.133333 554.666667L498.346667 554.666667c0 0 0 6.826667-6.826667 6.826667L327.68 861.866667C307.2 889.173333 259.413333 889.173333 218.453333 868.693333 177.493333 848.213333 163.84 814.08 177.493333 786.773333l136.533333-232.106667L150.186667 554.666667C109.226667 554.666667 68.266667 520.533333 68.266667 479.573333c0-40.96 40.96-75.093333 81.92-75.093333l273.066667 0L423.253333 281.6l-273.066667 0C109.226667 281.6 68.266667 254.293333 68.266667 213.333333c0-40.96 40.96-75.093333 81.92-75.093333l273.066667 0 0-191.146667c0-40.96 40.96-75.093333 81.92-75.093333l0 0c47.786667 0 81.92 34.133333 81.92 75.093333l0 191.146667 273.066667 0c47.786667 0 81.92 34.133333 81.92 75.093333C955.733333 254.293333 914.773333 281.6 873.813333 281.6L873.813333 281.6zM873.813333 281.6"  horiz-adv-x="1024" />

    
    <glyph glyph-name="more" unicode="&#58938;" d="M147.012 465.109c-44.791 0-81.108-36.304-81.108-81.109 0-44.779 36.316-81.108 81.108-81.108 44.792 0 81.109 36.329 81.109 81.108 0 44.805-36.316 81.109-81.109 81.109zM511.999 465.109c-44.791 0-81.108-36.304-81.108-81.109 0-44.779 36.316-81.108 81.108-81.108 44.792 0 81.109 36.329 81.109 81.108 0 44.805-36.317 81.109-81.109 81.109zM876.987 465.109c-44.791 0-81.108-36.304-81.108-81.109 0-44.779 36.316-81.108 81.108-81.108s81.108 36.329 81.108 81.108c-0.001 44.805-36.317 81.109-81.108 81.109z"  horiz-adv-x="1024" />

    
    <glyph glyph-name="dianzan1" unicode="&#58902;" d="M884.876 472.857h-237.905c92.186 340.464-63.517 357.853-63.517 357.853-65.993 0-52.312-52.182-57.303-60.882 0-166.502-176.85-296.972-176.85-296.972v-472.172c0-46.608 63.517-63.394 88.433-63.394h357.452c33.641 0 61.036 88.224 61.036 88.224 88.434 300.706 88.434 390.177 88.434 390.177 0.001 62.128-59.781 57.164-59.781 57.164v0 0zM251.671 472.7h-142.457c-29.42 0-29.873-28.896-29.873-28.896l29.42-476.203c0-30.309 30.361-30.309 30.361-30.309h123.297c25.686 0 25.459 20.050 25.459 20.050l-0 479.247c0 36.574-36.208 36.111-36.208 36.111v0 0zM251.671 472.7z"  horiz-adv-x="1024" />

    
    <glyph glyph-name="fenxiang1" unicode="&#58931;" d="M1014.88968 484.213523l-364.412811 400.854093c-14.576512 14.576512-36.441281 14.576512-51.017794 0C584.882562 870.491103 584.882562 863.202847 584.882562 848.626335l0-211.359431c-298.818505 0-583.060498-247.800712-583.060498-546.619217 0-80.170819 36.441281-182.206406 72.882562-218.647687 43.729537 225.935943 269.66548 400.854093 510.177936 400.854093 0-21.864769 0-218.647687 0-218.647687 0-7.288256 0-14.576512 7.288256-29.153025 14.576512-14.576512 43.729537-7.288256 51.017794 0l364.412811 393.565836C1022.177936 433.19573 1022.177936 447.772242 1022.177936 455.060498 1022.177936 462.348754 1022.177936 476.925267 1014.88968 484.213523z"  horiz-adv-x="1024" />

    
    <glyph glyph-name="xiangji1" unicode="&#58994;" d="M846.525959 607.177965 733.689055 607.177965l-48.477085 116.694769c-11.257391 27.103288-37.495986 44.61615-66.845431 44.61615L408.757614 768.488885c-29.348422 0-55.587016-17.512862-66.845431-44.61615l-48.475038-116.694769L180.598194 607.177965c-62.71946 0-113.7456-51.02614-113.7456-113.7456l0-378.463658c0-62.71946 51.02614-113.7456 113.7456-113.7456l665.927765 0c62.71946 0 113.7456 51.02614 113.7456 113.7456L960.27156 493.432365C960.27156 556.152848 909.24542 607.177965 846.525959 607.177965zM918.909523 114.969731c0-39.912012-32.471552-72.383564-72.383564-72.383564L180.598194 42.586167c-39.913035 0-72.383564 32.471552-72.383564 72.383564L108.21463 493.432365c0 39.912012 32.470529 72.383564 72.383564 72.383564l126.641305 0c8.357342 0 15.892969 5.02955 19.098987 12.748349l53.770648 129.443118c4.824889 11.614525 16.070001 19.120476 28.64848 19.120476l209.608925 0c12.57848 0 23.823592-7.504928 28.646434-19.1215l53.772694-129.443118c3.207042-7.716752 10.742668-12.747325 19.10001-12.747325l126.641305 0c39.912012 0 72.383564-32.471552 72.383564-72.383564L918.910547 114.969731zM513.561565 546.16231c-115.843378 0-210.089879-94.245478-210.089879-210.089879s94.245478-210.089879 210.089879-210.089879 210.089879 94.245478 210.089879 210.089879S629.405967 546.16231 513.561565 546.16231zM513.561565 167.344588c-93.036953 0-168.727843 75.691913-168.727843 168.727843s75.69089 168.727843 168.727843 168.727843c93.03593 0 168.727843-75.691913 168.727843-168.727843S606.598518 167.344588 513.561565 167.344588zM456.241069 251.026476c-28.319999 19.131733-45.227064 50.924833-45.227064 85.046978 0 11.42112-9.258874 20.681018-20.681018 20.681018s-20.681018-9.259898-20.681018-20.681018c0-47.879474 23.713075-92.484368 63.433728-119.319549 3.549849-2.397606 7.574512-3.546779 11.559267-3.546779 6.638187 0 13.159718 3.190669 17.154705 9.106402C468.193285 231.777063 465.704604 244.631836 456.241069 251.026476zM263.747963 514.904399l-86.860277 0c-11.422144 0-20.681018-9.258874-20.681018-20.681018s9.258874-20.681018 20.681018-20.681018l86.860277 0c11.422144 0 20.681018 9.258874 20.681018 20.681018S275.170107 514.904399 263.747963 514.904399z"  horiz-adv-x="1024" />

    
    <glyph glyph-name="shouye" unicode="&#59083;" d="M958.400956 444.45079c-0.058328 5.760191-2.597151 11.215436-6.965645 14.97097L524.345166 826.488857c-7.498788 6.445806-18.581194 6.445806-26.079982 0L309.582871 664.3245l0 102.017488c0 11.04966-8.901741 19.532869-19.951401 19.532869l-88.034009 0c-11.048637 0-19.928888-8.482185-19.928888-19.532869l0-211.954343L71.176063 459.42176c-4.423753-3.800559-6.967692-9.341762-6.967692-15.173584l0-105.500822c0-7.819083 4.554736-14.921851 11.660574-18.183128 2.670829-1.226944 5.51562-1.824555 8.343015-1.824555 4.699022 0 9.346879 1.654686 13.048177 4.836145l53.29788 45.825698 0-324.100516c0-60.677964 49.364291-110.042255 110.042255-110.042255L764.792447-64.741257c60.677964 0 110.042255 49.364291 110.042255 110.042255L874.834702 368.973772l51.585889-44.335764c5.955642-5.119601 14.356986-6.282077 21.481244-2.965541 7.122211 3.313465 11.645225 10.488889 11.565407 18.342764L958.400956 444.45079zM221.578538 745.965915l48.095391 0 0-115.941616-48.095391-41.336454L221.578538 745.965915zM570.718333-24.725892 436.666244-24.725892 436.666244 195.357596c0 11.031241 8.976442 20.007683 20.007683 20.007683l94.0357 0c11.031241 0 20.007683-8.976442 20.007683-20.007683L570.71731-24.725892zM834.818313 400.104793l0-354.803795c0-38.612413-31.414477-70.02689-70.02689-70.02689l-154.058748 0L610.732675 195.357596c0 33.096792-26.926256 60.023048-60.023048 60.023048l-94.0357 0c-33.096792 0-60.023048-26.926256-60.023048-60.023048l0-220.084511L260.59925-24.726915c-38.612413 0-70.02689 31.414477-70.02689 70.02689L190.57236 400.104793c0 1.172709-0.121773 2.314719-0.315178 3.432169l322.113255 276.958846 322.70268-277.348726C834.921667 402.151405 834.818313 401.141402 834.818313 400.104793zM525.411451 722.052273c-7.502881 6.445806-18.587334 6.446829-26.086122-0.00307L104.223736 382.336104l0 52.726875 407.081439 349.870436 407.176606-349.9523 0.521886-51.205219L525.411451 722.052273z"  horiz-adv-x="1024" />

    
    <glyph glyph-name="mima" unicode="&#58918;" d="M853.932164 546.283041l-91.221832 0c0 146.51384-111.981287 258.495127-254.702534 258.495127-142.920858 0-254.702534-111.981287-254.702534-258.495127L161.883821 546.283041C161.883821 722.139571 316.980897 896 507.808187 896 698.635478 896 853.932164 722.139571 853.932164 546.283041L853.932164 546.283041zM969.706043 396.375828c0 50.301754-40.920078 91.221832-91.221832 91.221832L147.511891 487.597661c-50.301754 0-91.221832-40.920078-91.221832-91.221832l0-433.153996c0-50.301754 40.920078-91.221832 91.221832-91.221832l730.77271 0c50.301754 0 91.221832 40.920078 91.221832 91.221832L969.506433 396.375828 969.706043 396.375828zM585.25692 57.637427c0-37.726316-30.540351-68.466277-68.466277-68.466277l-9.780897 0c-37.726316 0-68.466277 30.540351-68.466277 68.466277l0 185.637427c0 37.726316 30.540351 68.466277 68.466277 68.466277l9.780897 0c37.726316 0 68.466277-30.540351 68.466277-68.466277L585.25692 57.637427 585.25692 57.637427zM585.25692 57.637427"  horiz-adv-x="1024" />

    
    <glyph glyph-name="mimasuo" unicode="&#59466;" d="M768 512.704l-62.976 0L705.024 610.24C705.024 732.48 604.16 832 480.32 832c-123.84 0-224.64-99.52-224.64-221.76l0-97.536L192 512.704c-70.656 0-128-57.344-128-128l0-320c0-70.656 57.344-128 128-128l576 0c70.656 0 128 57.344 128 128l0 320C896 455.36 838.656 512.704 768 512.704zM319.872 610.24c0 87.296 72 158.4 160.448 158.4 88.512 0 160.512-71.04 160.512-158.4l0-97.536L319.872 512.704 319.872 610.24zM832 64.704c0-35.392-28.608-64-64-64L192 0.704c-35.392 0-64 28.608-64 64l0 320c0 35.392 28.608 64 64 64l576 0c35.392 0 64-28.608 64-64L832 64.704zM480 384.704c-52.992 0-96-28.608-96-64 0-27.84 26.816-51.264 64-60.096l0-99.904c0-17.664 14.336-32 32-32s32 14.336 32 32L512 260.608c37.184 8.832 64 32.256 64 60.096C576 356.032 532.992 384.704 480 384.704z"  horiz-adv-x="1024" />

    
    <glyph glyph-name="pinglun" unicode="&#58928;" d="M850.879104 799.58409l-676.303067 0c-60.681034 0-110.049418-49.367361-110.049418-110.049418l0-446.200388c0-60.681034 49.367361-110.049418 110.049418-110.049418l90.307795 0L396.936381-35.129846c3.793396-4.838192 9.598612-7.66354 15.746636-7.66354s11.952216 2.825348 15.746636 7.66354l132.052548 168.414711 290.396903 0c60.681034 0 110.049418 49.367361 110.049418 110.049418L960.928522 689.534671C960.928522 750.215706 911.561162 799.58409 850.879104 799.58409zM920.91111 243.334283c0-38.614459-31.416524-70.030983-70.030983-70.030983L550.744419 173.3033c-6.147 0-11.952216-2.825348-15.745612-7.66354L412.683017 9.643893l-122.31579 155.995867c-3.792373 4.838192-9.597589 7.66354-15.745612 7.66354l-100.045577 0c-38.614459 0-70.030983 31.416524-70.030983 70.030983L104.545054 689.534671c0 38.614459 31.416524 70.030983 70.030983 70.030983l676.303067 0c38.614459 0 70.030983-31.416524 70.030983-70.030983L920.910087 243.334283zM272.621051 551.473269c-44.132126 0-80.035848-35.903721-80.035848-80.035848 0-44.132126 35.903721-80.036871 80.035848-80.036871s80.035848 35.904745 80.035848 80.036871C352.655875 515.569548 316.752154 551.473269 272.621051 551.473269zM272.621051 431.417963c-22.065552 0-40.017412 17.951861-40.017412 40.018436 0 22.065552 17.952884 40.017412 40.017412 40.017412 22.065552 0 40.017412-17.951861 40.017412-40.017412C312.638463 449.370847 294.686602 431.417963 272.621051 431.417963zM512.727571 551.473269c-44.132126 0-80.035848-35.903721-80.035848-80.035848 0-44.132126 35.903721-80.036871 80.035848-80.036871 44.132126 0 80.035848 35.904745 80.035848 80.036871C592.763418 515.569548 556.859697 551.473269 512.727571 551.473269zM512.727571 431.417963c-22.065552 0-40.017412 17.951861-40.017412 40.018436 0 22.065552 17.951861 40.017412 40.017412 40.017412 22.065552 0 40.017412-17.951861 40.017412-40.017412C552.746006 449.370847 534.793122 431.417963 512.727571 431.417963zM752.836137 551.473269c-44.131103 0-80.035848-35.903721-80.035848-80.035848 0-44.132126 35.904745-80.036871 80.035848-80.036871s80.035848 35.904745 80.035848 80.036871C832.871985 515.569548 796.96724 551.473269 752.836137 551.473269zM752.836137 431.417963c-22.066575 0-40.017412 17.951861-40.017412 40.018436 0 22.065552 17.951861 40.017412 40.017412 40.017412s40.017412-17.951861 40.017412-40.017412C792.853549 449.370847 774.902712 431.417963 752.836137 431.417963z"  horiz-adv-x="1024" />

    
    <glyph glyph-name="wenjianjia2" unicode="&#59029;" d="M961.793 449.656 961.793 449.656 202.079 449.656c-28.215 0-52.07-18.43-60.285-43.93l0 0L75.51 201.517 75.51 766.153l0 0 316.499 0 0 0 0.07 0c0-69.927 56.645-126.57 126.575-126.57l0 0 316.499 0 0-126.572 63.28 0L898.433 639.583c0 34.927-28.35 63.287-63.28 63.287L518.579 702.87c-34.925 0-63.285 28.355-63.285 63.282l0 0c0 34.93-28.285 63.287-63.285 63.287l0 0L75.51 829.439c-34.927 0-63.285-28.357-63.285-63.287l0-759.571c0-34.93 28.357-63.28 63.285-63.28l759.573 0c28.215 0 52.07 18.425 60.285 43.93l0.07 0 129.5 399.137C1024.937 421.296 996.722 449.584 961.793 449.656zM838.368 6.582 75.51 6.582l123.285 379.787 762.853 0L838.368 6.582z"  horiz-adv-x="1025" />

    
    <glyph glyph-name="icon4" unicode="&#58976;" d="M1021.043668 465.609693c0-69.997214-57.141418-126.749776-127.630842-126.749776-70.487378 0-127.630842 56.752562-127.630842 126.749776l0 0 0 0 0 0c0-69.997214-57.143465-126.749776-127.630842-126.749776s-127.630842 56.752562-127.630842 126.749776l0 0 0 0 0 0 0 0c0-69.997214-57.143465-126.749776-127.630842-126.749776-70.486354 0-127.629819 56.752562-127.629819 126.749776l0 0 0 0 0 0 0 0c0-69.997214-57.143465-126.749776-127.631866-126.749776-70.485331 0-127.628796 56.752562-127.628796 126.749776l0 0 0 0 0 0 89.73986 237.651608L931.303808 703.261301 1021.043668 465.609693 1021.043668 465.609693 1021.043668 465.609693zM861.505116 750.800014l-701.967586 0c-26.433022 0-47.861054 21.270443-47.861054 47.529503 0 26.247804 21.429055 47.52848 47.861054 47.52848l701.967586 0c26.431999 0 47.861054-21.280676 47.861054-47.52848C909.367193 772.070456 887.937115 750.800014 861.505116 750.800014zM143.583163 292.094824l0 0.031722c4.587482 0.415462 9.081843 1.098008 13.552667 1.845021 0.973164 0.176009 1.960655 0.25071 2.916423 0.433882 2.069125 0.37453 4.054339 0.955768 6.098905 1.412163 8.66638 1.969864 17.149589 4.403287 25.293059 7.568373l0-0.022513 0 0 0-233.856166L829.597405 69.507306l0 233.856166 0 0 0 0.022513c8.136308-3.1569 16.610306-5.591345 25.26236-7.561209 2.051729-0.456395 4.054339-1.037632 6.130627-1.419326 0.956791-0.183172 1.944282-0.257873 2.90926-0.433882 4.469801-0.74599 8.974395-1.428535 13.560854-1.845021l0-0.031722c5.250584-0.491187 10.56973-0.765433 15.953344-0.765433 10.909467 0 21.547759 1.12359 31.909757 3.009544l0-319.889611c0-26.241664-21.431102-47.53155-47.862078-47.53155L143.583163-73.082226c-26.431999 0-47.861054 21.290909-47.861054 47.53155L95.722108 294.339958c10.360975-1.886977 20.99722-3.009544 31.906687-3.009544C133.014456 291.329391 138.332579 291.603637 143.583163 292.094824z"  horiz-adv-x="1037" />

    
    <glyph glyph-name="tongji" unicode="&#59007;" d="M918.025138 33.582095l-811.443431 0c-23.205442 0-41.972623 18.789948-41.972623 41.971927l0 671.513994c0 23.180955 18.767181 41.959647 41.972623 41.959647 23.158368 0 41.972623-18.778692 41.972623-41.959647l0-531.617803 0-97.925287 769.470807 0c23.158368 0 41.973647-18.789948 41.973647-41.970904C959.997761 52.373067 941.182483 33.582095 918.025138 33.582095M820.072302 159.49583l-83.945247 0c-23.158368 0-41.972623 18.778692-41.972623 41.959647L694.154432 495.24157c0 23.193235 18.814255 41.970904 41.972623 41.970904l83.945247 0c23.206465 0 41.973647-18.778692 41.973647-41.970904l0-293.786093C862.044925 178.274522 843.278767 159.49583 820.072302 159.49583M582.242104 159.49583l-83.945247 0c-23.181905 0-41.973647 18.778692-41.973647 41.959647L456.32321 663.125185c0 23.180955 18.791742 41.970904 41.973647 41.970904l83.945247 0c23.180882 0 41.972623-18.789948 41.972623-41.970904l0-461.669708C624.214727 178.274522 605.424009 159.49583 582.242104 159.49583M344.411906 159.49583l-83.945247 0c-23.205442 0-41.972623 18.778692-41.972623 41.959647l0 83.941807c0 23.179932 18.767181 41.970904 41.972623 41.970904l83.945247 0c23.181905 0 41.973647-18.789948 41.973647-41.970904l0-83.941807C386.384529 178.274522 367.593811 159.49583 344.411906 159.49583"  horiz-adv-x="1024" />

    
    <glyph glyph-name="jiage" unicode="&#58936;" d="M512 832c249.6 0 448-198.4 448-448s-198.4-448-448-448-448 198.4-448 448 198.4 448 448 448M512 896c-281.6 0-512-230.4-512-512s230.4-512 512-512 512 230.4 512 512-230.4 512-512 512v0zM716.8 640l-128-230.4h115.2v-64h-160v-44.8h153.6v-64l-153.6-0v-121.6h-64v121.6h-147.2v64h147.2v44.8h-147.2v64h115.2l-128 230.4h64l128-230.4h12.8l128 230.4h64z"  horiz-adv-x="1024" />

    
    <glyph glyph-name="wode" unicode="&#58898;" d="M663.057391 750.486882c-40.415478 42.295292-94.250594 65.587787-151.58951 65.587787-57.337893 0-111.173009-23.292496-151.588487-65.587787-40.074717-41.939181-62.145385-97.608062-62.145385-156.753113s22.070668-114.812909 62.145385-156.753113c11.187807-11.707646 23.407106-21.951965 36.440957-30.656207-44.13315-15.051811-94.220918-40.628326-138.068566-84.116793-72.692602-72.099085-109.673865-174.576037-109.914342-304.58402-0.028653-15.844873 12.792351-28.712949 28.637224-28.743648 0.019443 0 0.036839 0 0.054235 0 15.820314 0 28.659737 12.81077 28.689413 28.637224 0.272199 147.063427 51.357691 250.90547 151.835104 308.641429 76.1831 43.776016 154.298202 44.281529 155.494447 44.282552 0.041956 0 0.082888 0 0.124843 0 2.843768 0 5.590322 0.419556 8.18645 1.192152 53.616128 2.520403 103.616916 25.494651 141.700279 65.348334 40.074717 41.939181 62.144362 97.607038 62.144362 156.753113C725.201753 652.877797 703.131085 708.546677 663.057391 750.486882zM511.467881 428.773739c-86.212524 0-156.353001 74.000388-156.353001 164.960029s70.140477 164.960029 156.353001 164.960029S667.820881 684.692387 667.820881 593.733769 597.681428 428.773739 511.467881 428.773739zM746.753605 349.024417c-13.661138 8.029884-31.243585 3.463891-39.272445-10.196223s-3.463891-31.242562 10.1952-39.272445c0.225127-0.132006 23.532973-14.96483 47.399543-54.240345 24.2718-39.944757 53.206806-112.49205 53.206806-231.272317 0-15.844873 12.845563-28.690436 28.690436-28.690436s28.690436 12.845563 28.690436 28.690436C875.662557 270.308635 752.017492 345.930963 746.753605 349.024417z"  horiz-adv-x="1024" />

    
    <glyph glyph-name="qiche" unicode="&#58922;" d="M949.331905 326.723505c-3.657296 48.948829-35.241642 92.183516-80.490196 112.342648l-40.647769 191.108572c-14.877849 69.88772-85.074607 126.727263-156.523893 126.727263L351.41 756.901988c-71.450309 0-141.66651-56.838519-156.523893-126.727263l-40.667212-191.108572c-45.249577-20.178575-76.813456-63.393819-80.471776-112.342648l-9.205663-122.597199c-3.945869-52.668547 26.01449-100.158141 73.031317-119.370715 10.809183-42.331108 48.989761-73.217558 94.198405-73.217558 42.002626 0 77.757968 26.221198 91.361801 64.052828l376.812041 0c13.604856-37.83163 49.359174-64.052828 91.342358-64.052828 45.208645 0 83.429131 30.886451 94.238314 73.217558 47.01785 19.212574 76.956719 66.681702 72.991408 119.370715L949.331905 326.723505zM854.949304 132.265652c-11.896958-2.774183-20.50808-13.08911-21.125133-25.296129-1.12973-22.830985-19.809161-40.72861-42.535769-40.72861-22.151509 0-40.359196 16.808828-42.332131 39.105646-1.233084 14.117532-13.068643 24.925692-27.248597 24.925692L301.351907 130.272251c-14.178931 0-25.995047-10.80816-27.248597-24.925692-1.972934-22.296819-20.159132-39.105646-42.331108-39.105646-22.707165 0-41.385573 17.877159-42.516326 40.72861-0.596588 12.20702-9.227152 22.521946-21.104667 25.296129-31.358195 7.274684-51.517327 35.139312-49.071625 67.771523l9.205663 122.576733c2.384303 31.851429 26.406416 60.763922 58.44204 70.278623 10.43977 3.123131 18.041912 12.123109 19.357883 22.974247 0.164752 1.561565 0.287549 3.14462 0.410346 4.685719 0.062422 0.801249 0.062422 1.622964 0.205685 2.363837l41.674145 195.875133c9.617032 45.229111 56.797587 83.409688 103.034655 83.409688l320.260048 0c46.215578 0 93.397157-38.180578 103.034655-83.409688l41.652655-195.85569c0.165776-0.821715 0.165776-1.622964 0.227174-2.424212 0.102331-1.520633 0.226151-3.042289 0.410346-4.583388 1.274016-10.850116 8.898671-19.911492 19.379373-23.035646 32.015158-9.514701 56.037271-38.427194 58.420551-70.278623l9.187243-122.576733C906.446165 167.42543 886.266567 139.540336 854.949304 132.265652zM300.858674 413.256324l421.342234 0c10.151197 0 18.885116 3.759627 24.248264 10.233062 5.794983 6.67912 8.137331 15.823384 6.616698 25.749454-0.122797 0.656963-0.245593 1.314948-0.390903 1.971911l-33.103956 143.846152c-4.152577 22.685675-26.591635 41.632189-49.689702 41.632189L353.218182 636.689093c-23.097044 0-45.578058-18.946514-49.728588-41.632189l-33.084513-143.846152c-0.164752-0.656963-0.287549-1.314948-0.38988-1.971911-1.541099-9.925047 0.801249-19.069311 6.26775-25.358551C281.994024 417.016974 290.707476 413.256324 300.858674 413.256324zM356.608396 581.986213l309.863257 0 26.220175-114.028033L330.367755 467.95818 356.608396 581.986213zM267.917424 319.571618c-34.131355 0-61.811788-27.679409-61.811788-61.811788 0-34.151821 27.680433-61.811788 61.811788-61.811788 34.132378 0 61.792345 27.659967 61.792345 61.811788C329.709769 291.892209 302.049802 319.571618 267.917424 319.571618zM755.162624 319.571618c-34.132378 0-61.811788-27.679409-61.811788-61.811788 0-34.151821 27.679409-61.811788 61.811788-61.811788 34.151821 0 61.810764 27.659967 61.810764 61.811788C816.973388 291.892209 789.314445 319.571618 755.162624 319.571618z"  horiz-adv-x="1024" />

    
    <glyph glyph-name="fenxiang2" unicode="&#58903;" d="M819.226977 236.56696C757.33302 236.56696 704.164682 201.590841 676.681057 150.703502L315.975759 333.577641C324.981478 353.785271 330.219749 376.028394 330.219749 399.578294 330.219749 424.602366 324.105457 448.026164 314.007223 469.204671L690.652752 624.424442C720.409572 586.160735 766.36664 561.108765 818.592 561.108765 908.4115 561.108765 981.226149 633.92118 981.226149 723.742911 981.226149 813.56241 908.410385 886.377056 818.592 886.377056 728.77027 886.377056 655.957857 813.56241 655.957857 723.742911 655.957857 715.302977 657.201027 707.195599 658.441961 699.102726L258.632648 534.339348C232.649975 551.926727 201.323016 562.212441 167.585604 562.212441 77.763872 562.212441 4.951458 489.396679 4.951458 399.578295 4.951458 309.756564 77.763874 236.944151 167.585604 236.944151 203.650889 236.944151 236.656237 249.066718 263.626526 268.9351L657.042563 69.479054C659.457479-18.230181 730.931866-88.701332 819.228092-88.701332 909.047592-88.701332 981.862241-15.888919 981.862241 73.932811 981.861126 163.751196 909.046477 236.56696 819.226977 236.56696L819.226977 236.56696Z"  horiz-adv-x="1024" />

    
    <glyph glyph-name="weixin" unicode="&#58905;" d="M693.12 548.736c11.776 0 23.36-0.896 35.008-2.176-31.36 146.048-187.456 254.528-365.696 254.528C163.2 801.088 0 665.344 0 492.864c0-99.52 54.272-181.248 145.024-244.736L108.8 139.136l126.72 63.488c45.312-8.896 81.664-18.112 126.912-18.112 11.392 0 22.656 0.512 33.792 1.344-7.04 24.256-11.2 49.6-11.2 76.032C385.088 420.224 521.024 548.736 693.12 548.736zM498.304 646.976c27.392 0 45.376-17.984 45.376-45.248 0-27.136-17.984-45.312-45.376-45.312-27.072 0-54.336 18.176-54.336 45.312C443.968 629.056 471.168 646.976 498.304 646.976zM244.672 556.416c-27.2 0-54.592 18.176-54.592 45.312 0 27.264 27.392 45.248 54.592 45.248S289.92 629.056 289.92 601.728C289.92 574.592 271.872 556.416 244.672 556.416zM1024 266.24c0 144.896-145.024 262.976-307.904 262.976-172.48 0-308.224-118.144-308.224-262.976 0-145.28 135.808-262.976 308.224-262.976 36.096 0 72.512 9.024 108.736 18.112l99.392-54.528-27.264 90.624C969.728 112.128 1024 184.512 1024 266.24zM616.128 311.616c-17.984 0-36.224 17.92-36.224 36.224 0 18.048 18.24 36.224 36.224 36.224 27.52 0 45.376-18.176 45.376-36.224C661.504 329.536 643.648 311.616 616.128 311.616zM815.488 311.616c-17.856 0-36.032 17.92-36.032 36.224 0 18.048 18.112 36.224 36.032 36.224 27.264 0 45.376-18.176 45.376-36.224C860.864 329.536 842.752 311.616 815.488 311.616z"  horiz-adv-x="1024" />

    
    <glyph glyph-name="04" unicode="&#58896;" d="M448.057 768.113v127.887h-448.057v-1024h1024v896.113h-575.943zM959.603-63.603h-895.206v575.943h895.206v-575.943zM448.057 575.83h-383.66v255.773h319.263v-127.887h575.943v-127.887h-511.547z"  horiz-adv-x="1024" />

    
    <glyph glyph-name="zhihu" unicode="&#59034;" d="M544.949 334.578s0 71.387-34.779 75.050c-34.779 3.663-142.775 0-142.775 0v219.654h161.078s-1.83 73.219-32.949 73.219h-261.755l43.93 117.148s-65.897-3.663-89.692-45.761-98.844-252.604-98.844-252.604 25.627-10.983 67.726 20.134c42.101 31.116 56.743 86.033 56.743 86.033l76.879 3.663 1.83-223.316s-133.621 1.83-161.078 0c-27.457-1.83-42.101-75.050-42.101-75.050h203.182s-18.307-124.47-69.557-214.164c-53.085-89.692-151.929-161.078-151.929-161.078s71.387-29.287 140.947 10.983c69.557 42.101 120.811 223.316 120.811 223.316l162.912-203.182s14.643 97.013-1.83 124.47c-18.307 27.457-113.49 137.283-113.49 137.283l-42.101-36.607 29.287 120.811h177.552zM587.050 707.99l-1.83-660.793h65.897l23.795-82.37 115.321 82.37h162.912v660.793h-366.091zM879.92 120.416h-76.879l-97.013-75.050-21.965 75.050h-20.134v512.527h215.991v-512.527z"  horiz-adv-x="1024" />

    
    <glyph glyph-name="yanjing" unicode="&#58894;" d="M515.2 672C208 672 22.4 358.4 22.4 358.4s214.4-304 492.8-304 492.8 304 492.8 304S822.4 672 515.2 672zM832 243.2c-102.4-86.4-211.2-140.8-320-140.8s-217.6 51.2-320 140.8c-35.2 32-70.4 64-99.2 99.2-6.4 6.4-9.6 12.8-16 19.2 3.2 6.4 9.6 12.8 12.8 19.2 25.6 35.2 57.6 70.4 92.8 102.4 99.2 89.6 208 144 329.6 144s230.4-54.4 329.6-144c35.2-32 64-67.2 92.8-102.4 3.2-6.4 9.6-12.8 12.8-19.2-3.2-6.4-9.6-12.8-16-19.2-28.8-32-60.8-67.2-99.2-99.2zM512 550.4c-96 0-169.6-76.8-169.6-169.6 0-96 76.8-169.6 169.6-169.6 96 0 169.6 76.8 169.6 169.6S604.8 550.4 512 550.4z m0-294.4c-67.2 0-121.6 54.4-121.6 121.6 0 67.2 54.4 121.6 121.6 121.6 67.2 0 121.6-54.4 121.6-121.6 0-64-54.4-121.6-121.6-121.6z"  horiz-adv-x="1024" />

    
    <glyph glyph-name="xiaoxi1" unicode="&#58907;" d="M258.56-49.152l1.024 199.68-7.68 4.608c-5.632 3.584-11.776 7.168-16.896 11.264-20.48 14.336-39.424 29.696-56.32 47.104-8.192 8.192-8.192 20.992 0 29.184 8.192 8.192 20.992 8.192 29.184 0 15.36-15.36 32.256-29.184 50.688-41.984 5.12-3.584 10.24-6.656 15.36-10.24 5.12-3.072 10.752-6.656 16.384-9.728l10.752-6.144-1.024-144.896 144.896 99.84 7.68-1.024c20.48-3.072 39.424-5.12 64.512-5.12 218.112 0 395.776 141.312 395.776 314.88S735.232 752.64 517.12 752.64 121.344 611.328 121.344 437.76c0-42.496 10.24-83.968 31.232-122.368 5.12-10.24 1.536-22.528-8.192-27.648-9.728-5.12-22.528-1.536-27.648 8.192-24.064 45.056-35.84 92.672-35.84 141.824C80.384 633.856 276.48 793.6 517.12 793.6s436.736-159.744 436.736-355.84S757.76 81.92 517.12 81.92c-24.064 0-43.008 1.536-62.464 4.096l-196.096-135.168zM303.616 424.96m-54.272 0a54.272 54.272 0 1 1 108.544 0 54.272 54.272 0 1 1-108.544 0ZM516.608 424.96m-54.272 0a54.272 54.272 0 1 1 108.544 0 54.272 54.272 0 1 1-108.544 0ZM729.6 424.96m-54.272 0a54.272 54.272 0 1 1 108.544 0 54.272 54.272 0 1 1-108.544 0Z"  horiz-adv-x="1024" />

    
    <glyph glyph-name="setting-preferences-gear-office-application-structure-define-process-fbaaebdf" unicode="&#59268;" d="M992 313.6v140.8c0 14.4-11.2 25.6-25.6 25.6h-78.4c-11.2 0-20.8 7.2-24 17.6-6.4 19.2-13.6 37.6-22.4 55.2-4.8 9.6-3.2 21.6 4.8 29.6l56 56c9.6 9.6 9.6 26.4 0 36l-99.2 99.2c-9.6 9.6-26.4 9.6-36 0l-56-56c-8-8-20-9.6-29.6-4.8-17.6 8.8-36 16.8-55.2 22.4-10.4 3.2-17.6 13.6-17.6 24v79.2c-0.8 14.4-12 25.6-26.4 25.6h-140.8c-14.4 0-25.6-11.2-25.6-25.6v-78.4c0-11.2-7.2-20.8-17.6-24-19.2-6.4-37.6-13.6-55.2-22.4-9.6-4.8-21.6-3.2-29.6 4.8l-56 56c-9.6 9.6-26.4 9.6-36 0l-98.4-100.8c-9.6-9.6-9.6-26.4 0-36l56-56c8-8 9.6-20 4.8-29.6-8.8-17.6-16.8-36-22.4-55.2-3.2-10.4-13.6-17.6-24-17.6h-80c-14.4 0.8-25.6-10.4-25.6-24.8v-140.8c0-14.4 11.2-25.6 25.6-25.6h78.4c11.2 0 20.8-7.2 24-17.6 6.4-19.2 13.6-37.6 22.4-55.2 4.8-9.6 3.2-21.6-4.8-29.6l-56-56c-9.6-9.6-9.6-26.4 0-36l99.2-99.2c9.6-9.6 26.4-9.6 36 0l56 56c8 8 20 9.6 29.6 4.8 17.6-8.8 36-16.8 55.2-22.4 10.4-3.2 17.6-13.6 17.6-24v-78.4c0-14.4 11.2-25.6 25.6-25.6h140.8c14.4 0 25.6 11.2 25.6 25.6v77.6c0 11.2 7.2 20.8 17.6 24 19.2 6.4 37.6 13.6 55.2 22.4 9.6 4.8 21.6 3.2 29.6-4.8l56-56c9.6-9.6 26.4-9.6 36 0l99.2 99.2c9.6 9.6 9.6 26.4 0 36l-56 56c-8 8-9.6 20-4.8 29.6 8.8 17.6 16.8 36 22.4 55.2 3.2 10.4 13.6 17.6 24 17.6h78.4c16 0.8 27.2 12 27.2 26.4zM512 158.4c-124 0-225.6 100.8-225.6 225.6 0 124 100.8 225.6 225.6 225.6s225.6-101.6 225.6-225.6-101.6-225.6-225.6-225.6zM582.4-104h-140.8c-18.4 0-33.6 15.2-33.6 33.6v78.4c0 8-4.8 14.4-12 16.8-19.2 6.4-38.4 14.4-56 23.2-6.4 3.2-15.2 1.6-20-3.2l-56-56c-6.4-6.4-14.4-9.6-24-9.6-8.8 0-17.6 3.2-24 9.6l-99.2 99.2c-6.4 6.4-9.6 14.4-9.6 24 0 8.8 3.2 17.6 9.6 24l56 56c5.6 5.6 6.4 13.6 3.2 20-9.6 18.4-16.8 36.8-23.2 56-2.4 7.2-8.8 12-16.8 12h-78.4c-18.4 0-33.6 15.2-33.6 33.6v140.8c0 18.4 15.2 33.6 33.6 33.6h78.4c8 0 14.4 4.8 16.8 12 6.4 19.2 14.4 38.4 23.2 56 3.2 6.4 2.4 14.4-3.2 20l-56 56c-6.4 6.4-9.6 14.4-9.6 24s3.2 17.6 9.6 24l99.2 99.2c6.4 6.4 14.4 9.6 24 9.6 8.8 0 17.6-3.2 24-9.6l56-56c5.6-5.6 13.6-6.4 20-3.2 18.4 9.6 36.8 16.8 56 23.2 7.2 2.4 12 8.8 12 16.8v78.4c0 18.4 15.2 33.6 33.6 33.6h140.8c18.4 0 33.6-15.2 33.6-33.6v-78.4c0-8 4.8-14.4 12-16.8 19.2-6.4 38.4-14.4 56-23.2 6.4-3.2 15.2-1.6 20 3.2l56 56c6.4 6.4 14.4 9.6 24 9.6 8.8 0 17.6-3.2 24-9.6l99.2-99.2c6.4-6.4 9.6-14.4 9.6-24s-3.2-17.6-9.6-24l-56-56c-5.6-5.6-6.4-13.6-3.2-20 9.6-18.4 16.8-36.8 23.2-56 2.4-7.2 8.8-12 16.8-12h78.4c18.4 0 33.6-15.2 33.6-33.6v-140.8c0-18.4-15.2-33.6-33.6-33.6h-78.4c-8 0-14.4-4.8-16.8-12-6.4-19.2-14.4-38.4-23.2-56-3.2-6.4-2.4-14.4 3.2-20l56-56c6.4-6.4 9.6-14.4 9.6-24 0-8.8-3.2-17.6-9.6-24l-99.2-99.2c-6.4-6.4-14.4-9.6-24-9.6-8.8 0-17.6 3.2-24 9.6l-56 56c-5.6 5.6-13.6 6.4-20 3.2-18.4-9.6-36.8-16.8-56-23.2-7.2-2.4-12-8.8-12-16.8v-78.4c0-18.4-15.2-33.6-33.6-33.6zM332.8 66.4c4.8 0 10.4-1.6 15.2-4 17.6-8.8 35.2-16 53.6-22.4 13.6-4.8 23.2-17.6 23.2-32v-78.4c0-9.6 8-17.6 17.6-17.6h140.8c9.6 0 17.6 8 17.6 17.6v78.4c0 14.4 9.6 27.2 23.2 32 18.4 5.6 36.8 13.6 53.6 22.4 12.8 6.4 28.8 4 38.4-6.4l56-56c6.4-6.4 18.4-6.4 24.8 0l99.2 99.2c3.2 3.2 4.8 8 4.8 12.8s-1.6 8.8-4.8 12.8l-56 56c-10.4 10.4-12.8 25.6-6.4 38.4 8.8 17.6 16 35.2 22.4 53.6 4.8 13.6 17.6 23.2 32 23.2h78.4c9.6 0 17.6 8 17.6 17.6v140.8c0 9.6-8 17.6-17.6 17.6h-78.4c-14.4 0-27.2 9.6-32 23.2-5.6 18.4-13.6 36.8-22.4 53.6-6.4 12.8-4 28 6.4 38.4l56 56c7.2 7.2 7.2 18.4 0 24.8l-100 99.2c-6.4 6.4-18.4 6.4-24.8 0l-56-56c-9.6-9.6-26.4-12.8-38.4-6.4-17.6 8.8-35.2 16-53.6 22.4-13.6 4.8-23.2 17.6-23.2 32v79.2c0 9.6-8 17.6-17.6 17.6h-140.8c-9.6 0-17.6-8-17.6-17.6v-78.4c0-14.4-9.6-27.2-23.2-32-18.4-5.6-36.8-13.6-53.6-22.4-12.8-6.4-28.8-4-38.4 6.4l-56 56c-6.4 6.4-18.4 6.4-24.8 0l-99.2-100c-7.2-7.2-7.2-18.4 0-24.8l56-56c10.4-10.4 12.8-25.6 6.4-38.4-8.8-17.6-16-35.2-22.4-53.6-4.8-13.6-17.6-23.2-32-23.2h-79.2c-9.6 0-17.6-8-17.6-17.6v-140.8c0-9.6 8-17.6 17.6-17.6h78.4c14.4 0 27.2-9.6 32-23.2 5.6-18.4 13.6-36.8 22.4-53.6 6.4-12.8 4-28-6.4-38.4l-56-56c-3.2-3.2-4.8-8-4.8-12.8s1.6-8.8 4.8-12.8l99.2-99.2c6.4-6.4 18.4-6.4 24.8 0l56 56c7.2 6.4 16 10.4 24.8 10.4zM512 150.4c-128.8 0-233.6 104.8-233.6 233.6s104.8 233.6 233.6 233.6 233.6-104.8 233.6-233.6-104.8-233.6-233.6-233.6zM512 601.6c-120 0-217.6-97.6-217.6-217.6s97.6-217.6 217.6-217.6 217.6 97.6 217.6 217.6-97.6 217.6-217.6 217.6z"  horiz-adv-x="1024" />

    
    <glyph glyph-name="shouji" unicode="&#58963;" d="M788.48 896h-552.96c-42.496 0-76.8-34.304-76.8-76.8v-71.168c0-14.336 11.264-25.6 25.6-25.6h629.76v-593.92h-604.16v467.456c0 14.336-11.264 25.6-25.6 25.6s-25.6-11.264-25.6-25.6v-647.168c0-42.496 34.304-76.8 76.8-76.8h552.96c42.496 0 76.8 34.304 76.8 76.8v870.4c0 42.496-34.304 76.8-76.8 76.8z m-578.56-122.368v45.568c0 14.336 11.264 25.6 25.6 25.6h552.96c14.336 0 25.6-11.264 25.6-25.6v-45.568h-604.16z m578.56-850.432h-552.96c-14.336 0-25.6 11.264-25.6 25.6v128.512h604.16v-128.512c0-13.824-11.264-25.6-25.6-25.6zM512 0m-52.224 0a52.224 52.224 0 1 1 104.448 0 52.224 52.224 0 1 1-104.448 0Z"  horiz-adv-x="1024" />

    
    <glyph glyph-name="pinpai" unicode="&#58937;" d="M824.171 39.285H203.774c-18.412 0-34.044 13.15-37.259 31.269L76.66 580.779c-2.78 15.64 4.67 31.418 18.408 39.309 13.88 7.886 31.122 6.28 43.247-3.946l189.361-161.166 154.592 239.192c13.883 21.62 49.531 21.62 63.411 0l154.586-239.045L889.48 616.29c12.13 10.372 29.52 11.83 43.253 3.945 13.881-7.893 21.182-23.67 18.406-39.309L861.43 70.411c-3.214-17.977-18.852-31.126-37.259-31.126z m-588.686 75.544h556.977l66.194 375.654-142.168-120.979c-8.331-7.013-19.146-10.082-29.96-8.626-10.806 1.613-20.309 7.748-26.3 16.804L513.97 604.012l-146.255-226.33c-5.997-9.204-15.493-15.341-26.305-16.804-10.954-1.603-21.767 1.613-29.952 8.626L169.29 490.484l66.194-375.655zM824.17-82.866H203.774c-20.896 0-37.844 16.948-37.844 37.844s16.948 37.843 37.844 37.843h620.399c20.894 0 37.845-16.947 37.845-37.843s-16.952-37.844-37.847-37.844zM2.902 692.653a37.854 37.854 0 1 1 121.133 0 37.854 37.854 0 1 1-121.133 0z m452.292 96.38a37.853 37.853 0 1 1 121.13 0 37.853 37.853 0 1 1-121.13 0z m449.06-92.93a37.854 37.854 0 1 1 121.133 0 37.854 37.854 0 1 1-121.133 0z"  horiz-adv-x="1027" />

    
    <glyph glyph-name="qunliao" unicode="&#58880;" d="M896.631 190.389l-162.719 63.414c0 0-31.032 12.046-43.087 23.895-7.749 7.616-7.189 25.584-0.332 48.535 6.856 22.952 90.273 116.226 90.273 200.956 0 130.854-86.027 236.95-192.138 236.95-27.546 0-53.726-7.18-77.41-20.059 2.912-0.523 5.805-1.124 8.675-1.804 88.644-21.041 155.617-117.202 155.617-232.656 0-84.73-83.417-178.004-90.273-200.956-6.857-22.952-7.418-40.919 0.332-48.535 12.056-11.849 43.087-23.895 43.087-23.895l162.719-63.414c34.277-12.306 61.129-45.616 61.129-82.090v-17.297c0-19.656-7.894-35.534-20.661-46.582h53.862c39.732 0 72.055 24.353 72.055 64.151v17.297c-0 36.474-26.852 69.783-61.129 82.090zM738.037 170.845l-162.719 63.414c0 0-31.032 12.046-43.087 23.895-7.749 7.616-7.189 25.584-0.332 48.535 6.856 22.952 90.273 116.226 90.273 200.956 0 115.452-66.973 211.615-155.617 232.656-2.869 0.68-5.761 1.281-8.675 1.804-9.092 1.633-18.387 2.49-27.846 2.49-106.104 0-192.122-106.096-192.122-236.957 0-81.153 74.333-177.9 83.505-195.484 9.18-17.584 6.945-44.385-0.302-52.503-10.882-12.195-50.645-24.419-50.645-24.419l-146.69-65.376c-34.27-12.311-61.121-44.635-61.121-81.101v-17.297c0-39.798 32.322-64.151 72.048-64.151h592.404c20.109 0 38.312 6.247 51.395 17.569 12.767 11.048 20.661 26.927 20.661 46.582v17.297c-0 36.474-26.853 69.783-61.129 82.090z"  horiz-adv-x="1024" />

    
    <glyph glyph-name="weibo" unicode="&#59033;" d="M708.486 391.161c-12.986 1.214-24.758 8.374-16.142 23.18s24.515 57.89-6.068 88.231c-30.583 30.462-97.454 18.932-144.786-0.729-47.21-19.661-44.661-5.947-43.205 7.524 1.578 14.199 27.065 93.571-50.851 103.158-102.066 12.5-233.017-113.838-279.257-186.656-69.905-109.955-58.861-184.351-58.861-184.351h0.485c8.374-102.673 159.593-184.471 344.914-184.471 159.349 0 293.578 60.56 333.263 142.845 0 0 0.122 0.364 0.485 0.971 4.127 8.86 7.282 17.84 9.223 27.185 5.583 22.087 9.83 54.128-0.607 85.682-18.569 55.827-75.609 76.217-88.595 77.429zM431.779 101.953c-131.922 0-238.964 70.876-238.964 158.257s106.921 158.257 238.964 158.257c131.922 0 238.964-70.876 238.964-158.257 0-87.503-107.042-158.257-238.964-158.257zM756.668 452.691c2.427-1.092 4.976-1.578 7.524-1.578 7.524 0 14.806 4.491 17.84 11.893 4.976 11.773 7.524 24.272 7.524 37.259 0 52.671-42.841 95.513-95.513 95.513-12.865 0-25.364-2.548-37.137-7.524-9.83-4.127-14.442-15.534-10.316-25.486 4.127-9.83 15.534-14.442 25.486-10.316 7.039 2.913 14.442 4.491 22.087 4.491 31.312 0 56.676-25.486 56.676-56.676 0-7.646-1.456-15.050-4.491-22.087-4.247-9.952 0.364-21.36 10.316-25.486zM692.953 714.957c-21.724 0-43.205-3.155-63.837-9.223-15.413-4.611-24.151-20.753-19.661-36.166 4.611-15.413 20.753-24.151 36.166-19.661 15.292 4.491 31.19 6.796 47.331 6.796 91.387 0 165.782-74.396 165.782-165.782 0-16.384-2.427-32.646-7.039-48.181-4.611-15.413 4.005-31.676 19.419-36.287 2.791-0.85 5.703-1.214 8.496-1.214 12.5 0 24.030 8.131 27.914 20.631 6.311 20.995 9.588 42.841 9.588 65.051-0.122 123.548-100.61 224.036-224.157 224.036zM409.691 360.699c-70.39 0-127.431-49.881-127.431-111.533s57.040-111.533 127.431-111.533 127.431 49.881 127.431 111.533-57.040 111.533-127.431 111.533zM368.063 176.711c-24.637 0-44.661 20.025-44.661 44.661s20.025 44.661 44.661 44.661c24.637 0 44.661-20.025 44.661-44.661 0-24.637-20.025-44.661-44.661-44.661zM451.562 257.175c-5.34-9.345-16.142-13.229-24.030-8.617-7.888 4.491-9.83 15.777-4.491 25.122 5.34 9.345 16.142 13.229 24.030 8.617 7.888-4.611 9.83-15.899 4.491-25.122z"  horiz-adv-x="1024" />

    
    <glyph glyph-name="pengyou" unicode="&#58966;" d="M411.84-64c-234.88 0-349.056 54.912-349.056 168.128 0 79.616 118.592 131.904 238.464 150.08v6.72C211.712 329.408 199.808 451.776 199.808 552.32c0 136.96 80.64 218.88 215.808 218.88h7.104c135.168 0 215.808-81.92 215.808-218.88 0-100.544-11.968-222.72-101.44-291.392v-6.72c119.872-18.176 238.464-70.272 238.464-150.08-0.064-76.8-63.168-168.128-363.712-168.128z m3.776 768.704c-99.136 0-149.44-51.392-149.44-152.512 0-94.656 10.176-197.76 86.144-246.144 9.6-6.08 15.296-16.576 15.296-28.032v-53.12a33.216 33.216 0 0 0-29.568-33.024c-125.568-13.248-208.832-61.568-208.832-87.808 0-67.52 95.04-101.824 282.688-101.824 188.928 0 297.28 37.12 297.28 101.824 0 26.24-83.264 74.56-208.832 87.808a33.024 33.024 0 0 0-29.632 33.024v53.12a33.28 33.28 0 0 0 15.36 28.032C561.856 354.432 572.16 457.664 572.16 552.192c0 101.12-50.304 152.512-149.44 152.512h-7.104zM927.936 139.648a33.088 33.088 0 0 0-33.152 33.216c0 25.344-94.592 87.04-204.16 98.688a33.088 33.088 0 0 0-29.824 32.96V373.312c0 11.392 5.888 21.888 15.36 28.032 85.76 54.592 94.976 176 94.976 225.792 0 114.496-77.376 138.624-142.336 138.624A33.152 33.152 0 1 0 628.864 832c128.768 0 208.64-78.464 208.64-204.928 0-57.792-11.008-195.648-110.336-270.912v-22.976c105.856-19.264 233.984-82.944 233.984-160.384a33.024 33.024 0 0 0-33.216-33.152z"  horiz-adv-x="1024" />

    
    <glyph glyph-name="shouji1" unicode="&#58897;" d="M771.8 797.8H253.1c-21.1 0-38.1-17-38.1-38V8c0-21 17.1-38 38.1-38h518.7c21.1 0 38.1 17 38.1 38V759.8c0.1 21-17 38-38.1 38z m-338.9-18H592v-36.6H432.9v36.6z m133.5-721.9h-35.5v-41.4h-36.7v41.4h-35.5v36.6h35.5v29.3h36.7v-29.3h35.5v-36.6z m187.3 164.5c0-20.2-18.8-36.6-42.1-36.6H315.9c-23.2 0-42.1 16.4-42.1 36.6V669.7c0 20.2 18.8 36.6 42.1 36.6h395.7c23.2 0 42.1-16.4 42.1-36.6v-447.3z"  horiz-adv-x="1024" />

    
    <glyph glyph-name="sousuo1" unicode="&#58916;" d="M475.859 3.012c234.918 0 421.647 186.729 421.647 421.647s-186.729 421.647-421.647 421.647-421.647-186.729-421.647-421.647 186.729-421.647 421.647-421.647zM475.859 63.247c-198.776 0-361.412 162.635-361.412 361.412s162.635 361.412 361.412 361.412 361.412-162.635 361.412-361.412-162.635-361.412-361.412-361.412zM734.871 123.482l192.753-198.776 42.165 42.165-192.753 198.776z"  horiz-adv-x="1024" />

    
    <glyph glyph-name="fanhui" unicode="&#58886;" d="M532.526499-8.817574L139.506311 384.202615 532.526499 777.222803c12.258185 12.258185 12.432147 32.892131-0.187265 45.51052-12.707416 12.707416-32.995485 12.703323-45.511543 0.187265L75.166957 411.260877c-7.120165-7.120165-10.163477-17.065677-8.990768-26.624381-1.500167-9.755178 1.5104-20.010753 8.990768-27.491121l411.660734-411.660734c12.258185-12.258185 32.892131-12.432147 45.511543 0.187265 12.707416 12.707416 12.7023 32.995485 0.187265 45.51052z"  horiz-adv-x="1024" />

    
    <glyph glyph-name="caigou-xianxing" unicode="&#59527;" d="M821.6 640l-78.4-256H342.4L272 640h549.6M216 832H64v-64h104.8l18.4-64 100-361.6c1.6-4.8 4-8.8 7.2-12l-52-83.2c-6.4-5.6-10.4-14.4-10.4-23.2 0-17.6 14.4-32 32-32h568v64H323.2l40 64H768c13.6 0 24.8 8.8 29.6 22.4l97.6 318.4c6.4 20.8-8 43.2-29.6 43.2H252.8l-18.4 64L216 832zM320 64m-64 0a64 64 0 1 1 128 0 64 64 0 1 1-128 0ZM768 64m-64 0a64 64 0 1 1 128 0 64 64 0 1 1-128 0Z"  horiz-adv-x="1024" />

    
    <glyph glyph-name="pinglun1" unicode="&#58904;" d="M986.763636 858.763636H37.236364c-18.618182 0-37.236364-13.963636-37.236364-37.236363v-712.145455c0-18.618182 18.618182-37.236364 37.236364-37.236363h176.872727v-134.981819c0-13.963636 9.309091-27.927273 18.618182-32.581818 4.654545-4.654545 9.309091-4.654545 13.963636-4.654545 9.309091 0 18.618182 4.654545 23.272727 9.309091l200.145455 162.909091h516.654545c18.618182 0 37.236364 18.618182 37.236364 37.236363V821.527273c0 23.272727-18.618182 37.236364-37.236364 37.236363z m-37.236363-712.145454H460.8c-9.309091 0-18.618182-4.654545-23.272727-9.309091l-153.6-121.018182v93.090909c0 18.618182-18.618182 37.236364-37.236364 37.236364H74.472727V784.290909h879.709091v-637.672727zM228.072727 607.418182h567.854546v-74.472727H228.072727zM228.072727 402.618182h321.163637v-74.472727H228.072727z"  horiz-adv-x="1024" />

    
    <glyph glyph-name="mima1" unicode="&#58900;" d="M947.547511 557.755656h-41.701357C868.778281 752.361991 706.606335 896 512 896S155.221719 752.361991 118.153846 557.755656h-41.701357c-18.533937 0-37.067873-13.900452-37.067874-37.067873v-611.61991c0-18.533937 13.900452-37.067873 37.067874-37.067873h871.095022c18.533937 0 37.067873 13.900452 37.067874 37.067873V520.687783c0 23.167421-18.533937 37.067873-37.067874 37.067873zM512 821.864253c157.538462 0 287.276018-111.20362 324.343891-264.108597H187.656109c37.067873 152.904977 166.80543 264.108597 324.343891 264.108597z m398.479638-333.610859v-537.484163H113.520362V488.253394M474.932127 316.81448h74.135746V108.307692h-74.135746z"  horiz-adv-x="1024" />

    
    <glyph glyph-name="pinpai1" unicode="&#58895;" d="M1024 556.218182l-158.254545 288.581818c-4.654545 4.654545-9.309091 9.309091-13.963637 9.309091H172.218182c-4.654545 0-9.309091-4.654545-13.963637-9.309091L0 560.872727c0-9.309091 0-13.963636 4.654545-18.618182l484.072728-614.4c9.309091-13.963636 32.581818-13.963636 46.545454 0L1019.345455 542.254545c4.654545 4.654545 4.654545 9.309091 4.654545 13.963637z m-423.563636 232.727273l74.472727-204.8H344.436364L418.909091 788.945455h181.527273z m-400.290909 0h148.945454L274.618182 584.145455h-186.181818l111.709091 204.8zM102.4 518.981818H279.272727l139.636364-409.6-316.509091 409.6z m409.6-465.454545l-162.909091 465.454545h325.818182l-162.909091-465.454545z m88.436364 55.854545L744.727273 523.636364h176.872727l-321.163636-414.254546zM744.727273 584.145455l-74.472728 204.8h153.6L930.909091 584.145455h-186.181818z"  horiz-adv-x="1024" />

    
    <glyph glyph-name="wenjianjia" unicode="&#58946;" d="M864 704h-384a128 128 0 0 1-128 128h-192a128 128 0 0 1-128-128v-640a128 128 0 0 1 128-128h704a128 128 0 0 1 128 128V576a128 128 0 0 1-128 128z m64-640a64 64 0 0 0-64-64h-704a64 64 0 0 0-64 64V512h832v-448z m-832 512V704a64 64 0 0 0 64 64h192a64 64 0 0 0 64-64v-64h448a64 64 0 0 0 64-64h-832z"  horiz-adv-x="1024" />

    
    <glyph glyph-name="shezhi" unicode="&#58935;" d="M992 285.866667c-4.266667-27.733333-21.333333-46.933333-42.666667-46.933334h-4.266666c-70.4 0-128-57.6-128-130.133333 0-23.466667 10.666667-49.066667 10.666666-49.066667 10.666667-25.6 2.133333-55.466667-19.2-70.4h-2.133333L682.666667-81.066667h-2.133334c-6.4-2.133333-14.933333-4.266667-23.466666-4.266666-17.066667 0-36.266667 8.533333-46.933334 19.2-14.933333 17.066667-64 61.866667-102.4 61.866666-38.4 0-87.466667-44.8-102.4-59.733333-10.666667-12.8-27.733333-19.2-46.933333-19.2-8.533333 0-17.066667 2.133333-23.466667 4.266667h-2.133333L213.333333-10.666667h-2.133333c-21.333333 14.933333-29.866667 46.933333-19.2 70.4 0 0 10.666667 25.6 10.666667 49.066667 0 70.4-57.6 130.133333-128 130.133333-19.2 0-36.266667 17.066667-42.666667 46.933334 0 2.133333-10.666667 55.466667-10.666667 98.133333 0 42.666667 10.666667 96 10.666667 98.133333 4.266667 27.733333 21.333333 46.933333 42.666667 46.933334h4.266666c70.4 0 128 57.6 128 130.133333 0 23.466667-10.666667 49.066667-10.666666 49.066667-12.8 21.333333-4.266667 53.333333 19.2 68.266666h2.133333l128 70.4h2.133333c4.266667 4.266667 10.666667 6.4 19.2 6.4 17.066667 0 34.133333-6.4 46.933334-19.2 14.933333-14.933333 61.866667-57.6 100.266666-57.6 38.4 0 85.333333 40.533333 100.266667 55.466667 10.666667 12.8 27.733333 19.2 44.8 19.2 8.533333 0 17.066667-2.133333 23.466667-4.266667h2.133333l123.733333-68.266666h2.133334c21.333333-14.933333 29.866667-46.933333 19.2-70.4 0 0-10.666667-25.6-10.666667-49.066667 0-70.4 57.6-130.133333 128-130.133333h4.266667c19.2 0 36.266667-17.066667 42.666666-46.933334 0-2.133333 10.666667-55.466667 10.666667-98.133333-2.133333-42.666667-12.8-96-12.8-98.133333z m-40.533333 187.733333c-2.133333 6.4-2.133333 8.533333-4.266667 10.666667-93.866667 0-170.666667 76.8-170.666667 172.8 0 29.866667 10.666667 59.733333 14.933334 66.133333 2.133333 6.4 0 14.933333-4.266667 19.2l-119.466667 66.133333H661.333333c-6.4 0-12.8-2.133333-14.933333-6.4-6.4-6.4-68.266667-70.4-132.266667-70.4s-125.866667 64-132.266666 70.4c-2.133333 6.4-8.533333 8.533333-14.933334 8.533334h-6.4l-123.733333-68.266667c-4.266667-4.266667-6.4-12.8-4.266667-19.2 0 0 14.933333-34.133333 14.933334-66.133333 0-93.866667-76.8-172.8-170.666667-172.8-2.133333-2.133333-2.133333-6.4-4.266667-10.666667 0 0-8.533333-51.2-8.533333-89.6 0-38.4 8.533333-89.6 8.533333-89.6 2.133333-6.4 2.133333-8.533333 4.266667-10.666667 93.866667 0 170.666667-76.8 170.666667-172.8 0-27.733333-10.666667-55.466667-14.933334-66.133333-2.133333-6.4 0-14.933333 4.266667-19.2l117.333333-66.133333h6.4c6.4 0 12.8 2.133333 14.933334 6.4 2.133333 2.133333 68.266667 74.666667 134.4 74.666666 66.133333 0 128-68.266667 134.4-74.666666 2.133333-2.133333 8.533333-6.4 14.933333-6.4h6.4l121.6 68.266666c4.266667 4.266667 6.4 12.8 4.266667 19.2-2.133333 4.266667-14.933333 34.133333-14.933334 66.133334 0 93.866667 76.8 172.8 170.666667 172.8 2.133333 2.133333 2.133333 6.4 4.266667 10.666666 0 0 8.533333 51.2 8.533333 89.6 0 36.266667-8.533333 87.466667-8.533333 87.466667zM512 213.333333c-93.866667 0-170.666667 76.8-170.666667 170.666667s76.8 170.666667 170.666667 170.666667 170.666667-76.8 170.666667-170.666667-76.8-170.666667-170.666667-170.666667z m0 300.8c-70.4 0-130.133333-57.6-130.133333-130.133333 0-72.533333 57.6-130.133333 130.133333-130.133333s130.133333 57.6 130.133333 130.133333c0 72.533333-59.733333 130.133333-130.133333 130.133333z"  horiz-adv-x="1024" />

    
    <glyph glyph-name="jiantouxia" unicode="&#58925;" d="M517.688889 99.555556c-45.511111 0-85.333333 17.066667-119.466667 51.2L73.955556 514.844444c-22.755556 22.755556-17.066667 56.888889 5.688888 79.644445 22.755556 22.755556 56.888889 17.066667 79.644445-5.688889l329.955555-364.088889c5.688889-5.688889 17.066667-11.377778 28.444445-11.377778s22.755556 5.688889 34.133333 17.066667l312.888889 364.088889c22.755556 22.755556 56.888889 28.444444 79.644445 5.688889 22.755556-22.755556 28.444444-56.888889 5.688888-79.644445L637.155556 156.444444c-28.444444-39.822222-68.266667-56.888889-119.466667-56.888888 5.688889 0 0 0 0 0z"  horiz-adv-x="1024" />

    
    <glyph glyph-name="duihua" unicode="&#58929;" d="M524.288 590.848c-155.648 0-286.72-83.968-286.72-182.272 0-8.192 6.144-12.288 12.288-12.288 8.192 0 12.288 6.144 12.288 12.288 0 83.968 122.88 157.696 262.144 157.696 8.192 0 12.288 6.144 12.288 12.288s-6.144 12.288-12.288 12.288zM524.288 721.92c-231.424 0-417.792-141.312-417.792-313.344 0-108.544 71.68-202.752 182.272-260.096v-2.048c0-47.104-34.816-98.304-51.2-122.88-2.048-2.048-2.048-6.144-2.048-10.24 0-12.288 10.24-24.576 24.576-24.576h6.144c81.92 14.336 157.696 88.064 176.128 110.592 26.624-4.096 53.248-6.144 79.872-6.144 231.424 0 417.792 141.312 417.792 313.344s-184.32 315.392-415.744 315.392z m0-575.488c-24.576 0-49.152 2.048-73.728 6.144h-8.192c-16.384 0-30.72-6.144-40.96-18.432-10.24-14.336-43.008-43.008-79.872-65.536 10.24 22.528 18.432 49.152 18.432 75.776v4.096c0 20.48-10.24 36.864-28.672 47.104-96.256 49.152-155.648 129.024-155.648 212.992 0 143.36 163.84 262.144 366.592 262.144 202.752 0 366.592-116.736 366.592-262.144s-163.84-262.144-364.544-262.144z"  horiz-adv-x="1024" />

    
    <glyph glyph-name="wenjianjia1" unicode="&#59003;" d="M887.466667 679.822222H505.173333l-104.675555 111.502222H143.36c-50.062222 0-93.297778-40.96-93.297778-93.297777v-628.053334c0-50.062222 40.96-93.297778 93.297778-93.297777H887.466667c50.062222 0 93.297778 40.96 93.297777 93.297777V586.524444c0 52.337778-43.235556 93.297778-93.297777 93.297778z m-193.422223-402.773333h-143.36v-143.36c0-18.204444-15.928889-34.133333-34.133333-34.133333s-34.133333 15.928889-34.133333 34.133333v143.36h-143.36c-18.204444 0-34.133333 15.928889-34.133334 34.133333s15.928889 34.133333 34.133334 34.133334h143.36v143.36c0 18.204444 15.928889 34.133333 34.133333 34.133333s34.133333-15.928889 34.133333-34.133333v-143.36h143.36c18.204444 0 34.133333-15.928889 34.133334-34.133334s-15.928889-34.133333-34.133334-34.133333z"  horiz-adv-x="1024" />

    
    <glyph glyph-name="buoumaotubiao11" unicode="&#58892;" d="M512 848.921679c124.255134 0 241.090314-48.404143 328.966745-136.257314S977.2008 507.976013 977.2008 383.72087999999997s-48.380883-241.067054-136.234054-328.943485S636.255134-81.45666000000006 512-81.45666000000006s-241.090314 48.404143-328.966745 136.257314S46.7992 259.46574599999997 46.7992 383.72087999999997 95.180084 624.787934 183.033255 712.664365 387.744866 848.921679 512 848.921679M512 895.441759c-130.977285 0-261.93131-49.962566-361.856442-149.887698-199.850263-199.827003-199.850263-523.83936 0-723.643104 99.925132-99.925132 230.879157-149.887698 361.856442-149.887698s261.93131 49.962566 361.856442 149.887698c199.850263 199.827003 199.850263 523.83936 0 723.643104C773.93131 845.479193 642.977285 895.441759 512 895.441759L512 895.441759zM814.101399 360.43758L814.101399 360.43758 209.898601 360.4841c-12.862802 0-23.26004 10.420498-23.26004 23.26004s10.420498 23.26004 23.26004 23.26004l0 0 604.226059-0.04652c12.862802 0 23.26004-10.420498 23.26004-23.26004S826.940941 360.43758 814.101399 360.43758zM512 58.33618000000001c-12.862802 0-23.26004 10.420498-23.26004 23.26004L488.73996 685.845539c0 12.839542 10.397238 23.26004 23.26004 23.26004s23.26004-10.420498 23.26004-23.26004l0-604.272579C535.26004 68.75667799999997 524.862802 58.33618000000001 512 58.33618000000001z"  horiz-adv-x="1024" />

    
    <glyph glyph-name="gongziyufuli" unicode="&#58908;" d="M456.544 112.896a272.32 272.32 0 0 0 272.288 272.288c34.144 0 66.72-6.56 96.832-18.048-31.264 84.16-71.616 154.592-102.656 184.48-44.064 42.304-151.2 106.208-161.312 139.168a331.136 331.136 0 0 0-2.816 8.704c9.472 0.992 16.8 6.816 16.8 13.888 0 7.84-8.8 14.112-19.584 14.112h-1.024c2.592 30.432 31.424 47.04 60.16 143.808-114.08 35.072-111.84 8-198.752-34.976-64.32-13.504-59.904 74.624-141.184 33.952 41.376-88.224 75.296-111.872 82.88-142.976-9.472-1.024-16.704-6.784-16.704-13.92 0-7.072 7.264-12.864 16.704-13.888-0.288-1.44-0.48-2.688-0.864-4.256-8.768-34.592-120-98.176-167.232-143.616-103.616-99.744-311.84-649.216 66.144-662.496 177.728-6.144 200.256-6.144 200.256-6.144s15.68 0 121.12 3.456a272.16 272.16 0 0 0-121.056 226.464z m-17.28 192.384v-39.04h-95.136v-53.696h95.136v-39.36h-95.136v-78.208H295.2v78.208H196.544v39.36h98.656V266.24H196.544v39.04h84.128l-102.592 176.256h55.136c48-87.52 77.088-143.136 87.488-166.592h0.896c3.552 9.728 13.152 29.152 28.768 58.496l58.688 108.096h52.16l-103.616-176.256h81.664zM751.744 181.312H713.92a5.664 5.664 0 0 1-5.696-5.696c0-3.136 2.56-5.728 5.696-5.728h37.856a5.728 5.728 0 0 1-0.032 11.424z m93.12 26.848c-1.824 9.792-5.088 17.632-9.824 23.36a28.32 28.32 0 0 1-14.912 9.664c-13.248 3.36-29.6-2.912-39.648-15.36-10.816-13.28-16.64-27.392-19.616-37.728a15.392 15.392 0 0 0 4.512-19.808c5.92-0.288 12.928-0.544 20.416-0.288 25.632 0.8 43.936 6.176 52.896 15.552 6.048 6.304 8.064 14.304 6.176 24.608z m-116.064 142.848a238.304 238.304 0 0 1-238.272-238.272 238.304 238.304 0 0 1 238.272-238.24 238.24 238.24 0 0 1 238.24 238.24 238.208 238.208 0 0 1-238.24 238.272z m-3.968-379.264H616.64a6.528 6.528 0 0 0-6.496 6.56v116.672h114.72v-123.232z m132.32 6.56a6.528 6.528 0 0 0-6.528-6.56h-108.192v123.232h114.72v-116.672z m16.928 134.4l-131.968 0.192v47.264h-17.28v-47.264l-131.968-0.192-0.032 45.824c0 3.552 2.912 6.464 6.528 6.464h69.504c-15.424 14.24-35.712 30.656-53.696 37.536-17.024 6.464-31.712 5.056-43.456-4.256-8.896-6.944-12.8-15.84-12.864-15.936a4.8 4.8 0 0 0-6.4-2.528 4.96 4.96 0 0 0-2.56 6.4c0.192 0.416 4.928 11.264 15.744 19.776 10.112 8 27.488 15.392 53.088 5.632 15.488-5.888 34.08-18.656 55.168-37.856 3.328-3.104 6.4-6.016 9.248-8.768h19.52a15.584 15.584 0 0 0-4.224 10.624c0 4.864 2.24 9.248 5.856 12.064-5.152 16.384-12.928 30.368-22.784 40.608-7.744 8.032-16.864 13.792-24.48 15.36-9.984 2.144-18.272 0.8-24.8-3.968a30.368 30.368 0 0 1-10.944-17.344c-0.672-2.592-3.264-4.256-5.888-3.584s-4.256 3.264-3.616 5.92c2.304 9.568 7.52 17.664 14.688 22.944 8.672 6.336 19.968 8.32 32.576 5.664 9.6-2.016 20.384-8.672 29.504-18.208 10.784-11.232 19.328-26.336 24.896-43.936h38.144c3.296 11.168 9.568 26.528 21.312 40.928 5.888 7.232 13.856 13.12 22.56 16.48 9.184 3.52 18.592 4.32 27.168 2.112 7.84-2.016 14.592-6.336 20-12.928 5.76-7.008 9.728-16.32 11.872-27.776 2.432-13.408-0.512-24.608-8.704-33.12a51.808 51.808 0 0 0-18.944-11.776h40.704c3.584 0 6.592-2.912 6.592-6.464l-0.064-45.888z"  horiz-adv-x="1024" />

    
    <glyph glyph-name="xiangji2" unicode="&#59015;" d="M512 315.733333m-102.4 0a102.4 102.4 0 1 1 204.8 0 102.4 102.4 0 1 1-204.8 0ZM921.6 657.066667h-132.983467a68.266667 68.266667 0 0 0-62.020266 39.748266l-26.231467 57.0368A68.266667 68.266667 0 0 1 638.344533 793.6H395.1616a68.232533 68.232533 0 0 1-62.020267-39.748267l-26.231466-57.0368A68.266667 68.266667 0 0 0 244.8896 657.066667H102.4c-37.546667 0-68.266667-30.72-68.266667-68.266667v-546.133333c0-37.546667 30.72-68.266667 68.266667-68.266667h819.2c37.546667 0 68.266667 30.72 68.266667 68.266667V588.8c0 37.546667-30.72 68.266667-68.266667 68.266667zM273.066667 486.4h-102.4a34.133333 34.133333 0 0 0 0 68.266667h102.4a34.133333 34.133333 0 0 0 0-68.266667z m238.933333-341.333333c-94.1056 0-170.666667 76.561067-170.666667 170.666666s76.561067 170.6496 170.666667 170.6496S682.666667 409.838933 682.666667 315.733333s-76.561067-170.666667-170.666667-170.666666z"  horiz-adv-x="1024" />

    
    <glyph glyph-name="emoji-3" unicode="&#58899;" d="M48 445.8a428.1 428.1 0 1 1 856.2 0 428.1 428.1 0 1 1-856.2 0zM476.1 7.600000000000023c-59.1 0-116.5 11.6-170.5 34.4-52.2 22.1-99 53.7-139.3 93.9-40.2 40.2-71.8 87.1-93.9 139.3C49.6 329.20000000000005 38 386.6 38 445.8s11.6 116.5 34.4 170.5c22.1 52.2 53.7 99 93.9 139.3s87.1 71.8 139.3 93.9c54 22.8 111.4 34.4 170.5 34.4 59.1 0 116.5-11.6 170.5-34.4 52.2-22.1 99-53.7 139.3-93.9s71.8-87.1 93.9-139.3c22.8-54 34.4-111.4 34.4-170.5s-11.6-116.5-34.4-170.5c-22.1-52.2-53.7-99-93.9-139.3-40.2-40.2-87.1-71.8-139.3-93.9-53.9-22.9-111.3-34.5-170.5-34.5z m0 856.3c-56.5 0-111.2-11.1-162.8-32.9-49.8-21.1-94.5-51.2-132.9-89.6-38.4-38.4-68.6-83.1-89.6-132.9C69.1 557 58 502.2 58 445.8S69.1 334.6 90.9 283c21.1-49.8 51.2-94.5 89.6-132.9 38.4-38.4 83.1-68.6 132.9-89.6 51.5-21.8 106.3-32.9 162.8-32.9 56.5 0 111.2 11.1 162.8 32.9 49.8 21.1 94.5 51.2 132.9 89.6s68.6 83.1 89.6 132.9c21.8 51.5 32.9 106.3 32.9 162.8s-11.2 111.2-33 162.7c-21.1 49.8-51.2 94.5-89.6 132.9C733.4 779.8 688.7 810 638.9 831c-51.5 21.8-106.3 32.9-162.8 32.9zM82.3 480.1a393.8 393.8 0 1 1 787.6 0 393.8 393.8 0 1 1-787.6 0zM476.1 7.600000000000023c-59.1 0-116.5 11.6-170.5 34.4-52.2 22.1-99 53.7-139.3 93.9-40.2 40.2-71.8 87.1-93.9 139.3C49.6 329.20000000000005 38 386.6 38 445.8s11.6 116.5 34.4 170.5c22.1 52.2 53.7 99 93.9 139.3s87.1 71.8 139.3 93.9c54 22.8 111.4 34.4 170.5 34.4 59.1 0 116.5-11.6 170.5-34.4 52.2-22.1 99-53.7 139.3-93.9s71.8-87.1 93.9-139.3c22.8-54 34.4-111.4 34.4-170.5s-11.6-116.5-34.4-170.5c-22.1-52.2-53.7-99-93.9-139.3-40.2-40.2-87.1-71.8-139.3-93.9-53.9-22.9-111.3-34.5-170.5-34.5z m0 856.3c-56.5 0-111.2-11.1-162.8-32.9-49.8-21.1-94.5-51.2-132.9-89.6-38.4-38.4-68.6-83.1-89.6-132.9C69.1 557 58 502.2 58 445.8S69.1 334.6 90.9 283c21.1-49.8 51.2-94.5 89.6-132.9 38.4-38.4 83.1-68.6 132.9-89.6 51.5-21.8 106.3-32.9 162.8-32.9 56.5 0 111.2 11.1 162.8 32.9 49.8 21.1 94.5 51.2 132.9 89.6s68.6 83.1 89.6 132.9c21.8 51.5 32.9 106.3 32.9 162.8s-11.2 111.2-33 162.7c-21.1 49.8-51.2 94.5-89.6 132.9C733.4 779.8 688.7 810 638.9 831c-51.5 21.8-106.3 32.9-162.8 32.9zM340.1 770.9a136 44 0 1 1 272 0 136 44 0 1 1-272 0zM190.9 339.5a50.7 31.400000000000002 0 1 1 101.4 0 50.7 31.400000000000002 0 1 1-101.4 0zM660 339.5a50.7 31.400000000000002 0 1 1 101.4 0 50.7 31.400000000000002 0 1 1-101.4 0zM276.5 404.3c-5.5 0-10 4.5-10 10 0 13.8-11.2 24.9-24.9 24.9s-24.9-11.2-24.9-24.9c0-5.5-4.5-10-10-10s-10 4.5-10 10c0 24.8 20.2 44.9 44.9 44.9s44.9-20.2 44.9-44.9c0-5.5-4.5-10-10-10z m469.2 0c-5.5 0-10 4.5-10 10 0 13.8-11.2 24.9-24.9 24.9s-24.9-11.2-24.9-24.9c0-5.5-4.5-10-10-10s-10 4.5-10 10c0 24.8 20.2 44.9 44.9 44.9 24.8 0 44.9-20.2 44.9-44.9 0-5.5-4.5-10-10-10zM567.6 142.79999999999995s-68.6-12.9-91.4-12.9-91.4 12.9-91.4 12.9c-58.8 16.5-92.9 60.8-92.9 103.6s41.8 52.1 92.9 52.1c0 0 68.6-12.9 91.4-12.9s91.4 12.9 91.4 12.9c51.1 0 92.9-9.3 92.9-52.1s-42.2-83.1-92.9-103.6zM476.1 119.89999999999998c-23.5 0-90.5 12.5-93.3 13-0.3 0.1-0.6 0.1-0.9 0.2-29.9 8.4-55.3 24-73.4 45-17.3 20.1-26.8 44.4-26.8 68.2 0 24 11.1 41.2 33.1 51.2 16.3 7.4 38.5 10.9 69.7 10.9 0.6 0 1.2-0.1 1.8-0.2 0.7-0.1 67.9-12.7 89.6-12.7 21.7 0 88.9 12.6 89.6 12.7 0.6 0.1 1.2 0.2 1.8 0.2 31.3 0 53.4-3.5 69.7-10.9 22-10 33.1-27.3 33.1-51.2 0-22.8-10.4-46-30.1-67-17.5-18.6-42-34.9-69-45.9-0.6-0.2-1.3-0.4-1.9-0.6-2.5-0.4-69.4-12.9-93-12.9zM387 152.5c5.8-1.1 68.4-12.6 89.2-12.6 20.2 0 80.2 11 88.6 12.5 24 9.9 45.6 24.3 61 40.7 16.2 17.2 24.7 35.7 24.7 53.3 0 20.7-9.8 41.9-82 42.1-8.7-1.6-70-12.9-92.4-12.9-22.3 0-83.7 11.3-92.4 12.9-72.2-0.2-82-21.4-82-42.1 0-19.1 7.8-38.7 22-55.2 15.5-18 37.4-31.3 63.3-38.7zM358.6 152.10000000000002c-0.9 0-1.9 0.1-2.8 0.4-5.3 1.5-8.3 7.1-6.8 12.4l39.1 133.9c1.5 5.3 7.1 8.3 12.4 6.8 5.3-1.5 8.3-7.1 6.8-12.4l-39.1-133.9c-1.3-4.4-5.3-7.2-9.6-7.2z m235.1-4.9c-4.3 0-8.3 2.8-9.6 7.2L545 288.29999999999995c-1.5 5.3 1.5 10.9 6.8 12.4s10.9-1.5 12.4-6.8L603.3 160c1.5-5.3-1.5-10.9-6.8-12.4-0.9-0.2-1.9-0.4-2.8-0.4zM476.1 132.79999999999995c-5.5 0-10 4.5-10 10V285.6c0 5.5 4.5 10 10 10s10-4.5 10-10v-142.8c0-5.6-4.4-10-10-10zM141.8-71.29999999999995a334.3 34.19999999999999 0 1 1 668.6 0 334.3 34.19999999999999 0 1 1-668.6 0zM478.8 202.60000000000002c-25.4 0-51.1 1.8-76.7 5.4-68.5 9.6-112.4 28.4-114.3 29.2-5.1 2.2-7.4 8.1-5.2 13.2s8.1 7.4 13.2 5.2c14.9-6.4 56.9-20.5 109.7-27.9 38.6-5.4 77.4-6.5 115.2-3.4 47.1 3.9 92.9 14.4 136.1 31.4 5.1 2 10.9-0.5 13-5.7s-0.5-10.9-5.7-13c-45.1-17.7-93-28.7-142.2-32.7-14.2-1.1-28.7-1.7-43.1-1.7zM865.1 398.6l39.9-73.1 73-39.9-73-39.9-39.9-73-40 73-73 39.9 73 39.9zM865.1 162.70000000000005c-3.7 0-7 2-8.8 5.2l-38.5 70.4-70.4 38.5c-3.2 1.8-5.2 5.1-5.2 8.8s2 7 5.2 8.8l70.4 38.5 38.5 70.4c1.8 3.2 5.1 5.2 8.8 5.2s7-2 8.8-5.2l38.5-70.4 70.4-38.5c3.2-1.8 5.2-5.1 5.2-8.8s-2-7-5.2-8.8l-70.4-38.5-38.5-70.4c-1.8-3.2-5.2-5.2-8.8-5.2zM773 285.6l57-31.2c1.7-0.9 3.1-2.3 4-4l31.2-57 31.2 57c0.9 1.7 2.3 3.1 4 4l57 31.2-57 31.2c-1.7 0.9-3.1 2.3-4 4l-31.2 57-31.2-57c-0.9-1.7-2.3-3.1-4-4l-57-31.2z"  horiz-adv-x="1024" />

    
    <glyph glyph-name="wodediannao" unicode="&#59176;" d="M51.2 896h921.6c28.16 0 51.2-23.04 51.2-51.2v-921.6c0-28.16-23.04-51.2-51.2-51.2h-921.6c-28.16 0-51.2 23.04-51.2 51.2v921.6c0 28.16 23.04 51.2 51.2 51.2zM546.133333 128h-68.266666v128h68.266666zM742.4 622.933333h-460.8c-18.773333 0-34.133333-15.36-34.133333-34.133333v-332.8c0-18.773333 15.36-34.133333 34.133333-34.133333h460.8c18.773333 0 34.133333 15.36 34.133333 34.133333v332.8c0 18.773333-15.36 34.133333-34.133333 34.133333zM614.4 145.066667h-204.8c-18.773333 0-34.133333-15.36-34.133333-34.133334s15.36-34.133333 34.133333-34.133333h204.8c18.773333 0 34.133333 15.36 34.133333 34.133333s-15.36 34.133333-34.133333 34.133334z"  horiz-adv-x="1024" />

    
    <glyph glyph-name="jiahao" unicode="&#58887;" d="M902.947 324.97299999999996h-332.293v-332.346c0-32.387-26.267-58.628-58.655-58.628-32.387 0-58.654 26.241-58.654 58.628v332.346h-332.295c-32.414 0-58.654 26.241-58.654 58.628 0 32.375 26.243 58.628 58.654 58.628h332.293v332.346c0 32.375 26.267 58.628 58.654 58.628 32.388 0 58.655-26.254 58.655-58.628v-332.347h332.293c32.414 0 58.655-26.252 58.655-58.626-0.001-32.387-26.241-58.626-58.655-58.626z"  horiz-adv-x="1024" />

    
    <glyph glyph-name="wodedangxuan" unicode="&#58889;" d="M512 883.2C236.544 883.2 12.8 659.456 12.8 384s223.744-499.2 499.2-499.2 499.2 223.744 499.2 499.2S787.456 883.2 512 883.2z m238.592-733.184c-5.632-6.656-14.336-11.264-23.552-11.264H295.936c-8.704 0-17.92 4.608-23.552 11.264-5.632 7.68-7.68 16.896-5.632 25.6 20.992 105.984 102.4 186.368 203.776 204.288C420.352 397.312 384 445.44 384 501.248c0 70.144 57.856 128 128 128s128-57.856 128-128c0-57.344-38.4-105.984-90.624-122.368 19.968-3.072 40.96-8.704 61.44-16.896 11.776-4.608 15.36-7.68 22.528-11.264 64.512-36.864 109.056-100.352 123.904-175.104 2.048-9.216 0-17.92-6.656-25.6z"  horiz-adv-x="1024" />

    
    <glyph glyph-name="gongzhonghaoguanli" unicode="&#58910;" d="M1020.695 394.198a45.59 45.59 0 0 1-8.154 20.088l-10.07 10.254L881.36 547.854V719.097a45.953 45.953 0 0 1-0.432 4.314 45.6 45.6 0 0 1-8.155 20.087 41.343 41.343 0 0 1-2.192 2.831 44.588 44.588 0 0 1-5.468 5.508 42.292 42.292 0 0 1-2.409 1.915 45.793 45.793 0 0 1-23.393 8.896H659.474L544.211 878.488l-5.457 5.498a46.006 46.006 0 0 1-29.941 11.006 46.045 46.045 0 0 1-30.485-11.48l-3.738-3.676s0-0.01-0.01-0.01L355.311 762.648H178.725a45.974 45.974 0 0 1-27.778-11.397 45.017 45.017 0 0 1-3.737-3.676s0-0.01-0.011-0.01c-6.857-7.557-11.253-17.379-11.913-28.222V538.67L19.283 422.43c-0.021-0.021-0.052-0.042-0.073-0.062l-4.098-4.107c-6.609-7.496-10.831-17.123-11.49-27.748a43.798 43.798 0 0 1-0.083-2.852 46.056 46.056 0 0 1 11.182-30.167l5.2-5.148 115.366-114.49v-175.464c0-0.978 0.021-1.936 0.083-2.882 0.638-10.4 4.716-19.871 11.099-27.284a45.298 45.298 0 0 1 5.2-5.148 46.025 46.025 0 0 1 22.177-10.296h180.23l116.663-118.434 12.181-12.355a45.642 45.642 0 0 1 18.594-7.557c2.491-0.423 5.055-0.639 7.67-0.639s5.178 0.216 7.681 0.639a45.97 45.97 0 0 1 21.055 9.368c0.021 0.01 0.031 0.021 0.053 0.041l6.866 6.734L669.521 16.78h175.598a45.827 45.827 0 0 1 19.221 9.019c0.021 0.01 0.031 0.021 0.053 0.042a46.703 46.703 0 0 1 6.868 6.732c5.251 6.344 8.844 14.106 10.1 22.631V231.162l117.138 116.426 16.113 16.011a45.867 45.867 0 0 1 6.084 16.958 46.67 46.67 0 0 1 0.505 6.836 46.404 46.404 0 0 1-0.506 6.805zM808.784 304.19L778.4 273.993v-154.254H627.484l-30.034-29.425-87.145-85.415-82.882 84.138-30.25 30.702H238.246V280.736l-30.435 30.199-77.549 76.951 77.898 78.053 30.085 30.146V659.688H397.42l30.043 29.519 80.834 79.402 78.188-78.579 30.186-30.342H778.4v-153.934l29.51-30.044 85.672-87.237-84.798-84.283zM456.007 217.777c-12.715 0-25.422 4.686-35.333 14.038L274.471 369.781c-20.677 19.514-21.622 52.095-2.109 72.773 19.513 20.676 52.094 21.622 72.773 2.109l111.34-105.068 217.983 200.259c20.937 19.235 53.502 17.854 72.737-3.082 19.234-20.938 17.854-53.503-3.083-72.738L490.833 231.347c-9.854-9.052-22.343-13.57-34.826-13.57z"  horiz-adv-x="1024" />

    
    <glyph glyph-name="fuli" unicode="&#58927;" d="M776.4-32H128.9c-22.1 0-40 17.9-40 40V235.5c0 5.5 4.5 10 10 10s10-4.5 10-10V8c0-11 9-20 20-20h647.5c11 0 20 9 20 20V215c0 5.5 4.5 10 10 10s10-4.5 10-10v-207c0-22.1-18-40-40-40zM98.9 367c-5.5 0-10 4.5-10 10v41c0 22.1 17.9 40 40 40h546c5.5 0 10-4.5 10-10s-4.5-10-10-10h-546c-11 0-20-9-20-20v-41c0-5.5-4.5-10-10-10zM622.9-32h-350V458h350v-490z m-330 20h310V438h-310v-450zM98.9 307m-16 0a16 16 0 1 1 32 0 16 16 0 1 1-32 0ZM788.9 501.4c-3 0-5.9 1.3-7.9 3.9-3.4 4.4-2.6 10.6 1.8 14 24.4 18.9 47.5 52.1 60.3 86.6 8.2 22 18.9 63.2-1.1 92-12.1 17.5-26.8 24.9-43.5 22.1-30.9-5.2-64-44.2-77-90.7-1.5-5.3-7-8.4-12.3-6.9-5.3 1.5-8.4 7-6.9 12.3 15.3 54.4 54.3 98.5 93 105 24.3 4.1 46.8-6.7 63.2-30.4 40.9-59-9.4-163.9-63.4-205.8-1.8-1.5-4-2.1-6.2-2.1zM880.8 336.7c-5.3 0-9.8 4.2-10 9.6-0.2 5.5 4.1 10.2 9.6 10.4 21.7 0.9 38.4 7.5 47 18.7 7.5 9.8 9.4 23.5 5.5 40.7-10.6 46.9-84.6 78.5-147 78.6-5.5 0-10 4.5-10 10s4.5 10 10 10c34.3 0 71.4-8.7 101.7-23.7 36-17.8 58.4-42.2 64.8-70.5 5.3-23.3 2.2-42.5-9.1-57.3-12.4-16.2-33.9-25.4-62.1-26.5h-0.4zM872.5 128c-3.3 0-6.6 0.4-9.9 1.3-9.8 2.6-18 8.9-23.1 17.7l-0.1 0.2L512 711.4c-10.5 18.2-4.2 41.6 13.9 52.1l54.3 31.4c18.1 10.5 41.3 4.3 51.9-13.7l0.2-0.3 327.4-564.3c10.5-18.2 4.3-41.6-13.9-52.1l-54.3-31.4c-5.9-3.4-12.4-5.1-19-5.1z m-15.6 28.9c2.4-4.1 6.3-7 10.9-8.3 4.7-1.2 9.5-0.6 13.7 1.8l54.3 31.4c8.6 5 11.6 16.1 6.6 24.7L615 771c-5 8.6-16.1 11.6-24.7 6.6L536 746.2c-8.6-5-11.6-16.1-6.6-24.7l327.5-564.6zM743 313.2L611.8 539.5l118.5 72.6 131.3-226.2L743 313.2zM638.9 532.6L750.1 341l84.4 51.7-111.3 191.6-84.3-51.7zM132.3 500.3c-7 0-13.2 5.7-15.9 8.2-6.8 6.3-13.3 7.2-21.5 3-4.2-2.1-15.3-7.7-22.8-0.5s-2.4 18.6-0.5 22.9c3.8 8.5 2.7 14.9-3.8 21.6-3.3 3.3-12 12.2-7.5 21.6 4.6 9.4 16.9 8 21.5 7.5 9.2-1 14.9 2 19.2 10.3 2.1 4.2 7.8 15.3 18.2 13.8 10.3-1.4 12.8-13.6 13.8-18.2 1.9-9.1 6.5-13.6 15.7-15.2 4.6-0.8 16.9-2.8 18.7-13 1.8-10.3-9-16.4-13-18.7-8.1-4.6-10.9-10.5-9.5-19.7 0.7-4.6 2.6-17-6.6-21.9-2-1.2-4-1.7-6-1.7z m-27.9 33.8c7 0 13.8-2.2 20.2-6.5-0.1 12.1 4.7 22.1 14.3 29.5-11.5 3.6-19.5 11.3-23.5 22.6-7-9.8-16.7-15-28.8-15.4 7.2-9.7 9.1-20.7 5.8-32.3 4 1.4 8 2.1 12 2.1zM231.1 647.9c-0.6 0-1.3 0-1.9 0.1-11.6 1.6-14.5 16-15.8 22.2-2.9 14.2-10.5 21.6-24.7 24-6.2 1-20.6 3.4-22.7 15-2 11.5 10.7 18.8 16.2 21.9 12.6 7.1 17.2 16.7 15.1 31.1-0.9 6.2-3.1 20.8 7.2 26.3s21.1-4.5 25.8-8.7c10.6-9.8 21.1-11.3 34-4.8 5.6 2.8 18.7 9.4 27.1 1.3 8.4-8.1 2.4-21.5-0.2-27.3-6-13.2-4.1-23.7 6-34.1 4.4-4.5 14.7-15 9.6-25.5s-19.7-8.9-25.9-8.1c-14.3 1.6-23.7-3.4-30.3-16.2-2.9-5.3-9.1-17.2-19.5-17.2z m-38.7 66c21.9-3.8 35.9-17.3 40.5-39.1 10.4 19.7 27.5 28.8 49.6 26.5-15.5 16-18.9 35.2-9.8 55.6-19.9-9.8-39.1-7.1-55.6 7.8 3.1-22.1-5.4-39.7-24.7-50.8zM493.4 477.5c-4.2 0-8.1 2.7-9.5 6.9l-48 145c-1.7 5.2 1.1 10.9 6.4 12.6 5.2 1.7 10.9-1.1 12.6-6.4l48-145c1.7-5.2-1.1-10.9-6.4-12.6-1-0.3-2.1-0.5-3.1-0.5zM387.4 483.5c-3.1 0-6.2 1.5-8.2 4.3l-95.5 136c-3.2 4.5-2.1 10.8 2.4 13.9 4.5 3.2 10.8 2.1 13.9-2.4l95.5-136c3.2-4.5 2.1-10.8-2.4-13.9-1.7-1.3-3.7-1.9-5.7-1.9zM266.9 473c-1.4 0-2.9 0.3-4.3 1l-63 30c-5 2.4-7.1 8.3-4.7 13.3 2.4 5 8.3 7.1 13.3 4.7l63-30c5-2.4 7.1-8.3 4.7-13.3-1.7-3.6-5.3-5.7-9-5.7zM418.2 665c-1.6 0-3.4 0.3-5.1 1.2-8.9 4.2-7.7 15.6-7.3 19.3 0.7 6.7-1.5 10.6-7.4 13.6-3.4 1.7-13.6 6.8-12.3 16.5s12.4 12.1 16.1 12.9c6.5 1.4 9.6 4.7 10.6 11.3 0.6 3.7 2.3 15.1 11.9 16.9 9.6 1.8 15.4-8.1 17.3-11.3 3.4-5.8 7.4-7.7 14-6.6 3.7 0.6 15 2.5 19.7-6.1 4.7-8.6-2.9-17.1-5.4-19.9-4.4-5-5-9.5-1.9-15.4 1.7-3.3 7-13.5 0.3-20.7-6.7-7.1-17.2-2.5-20.6-1-6.1 2.7-10.5 1.8-15.1-2.9-2.5-2.1-8.1-7.8-14.8-7.8z m-3.3 47c5.9-5 9.5-11.6 10.6-19.4 6.6 4.1 13.9 5.5 21.6 4.1-1.8 7.6-0.9 15 2.8 21.9-7.7 0.6-14.5 3.8-19.9 9.4-3-7.2-8.1-12.6-15.1-16z m-12.1-4z"  horiz-adv-x="1024" />

    
    <glyph glyph-name="gongzhonghao" unicode="&#58883;" d="M1011.970306 357.689658L895.215856 241.009009a37.638919 37.638919 0 0 1-10.996469-26.64245v-165.020829a37.712721 37.712721 0 0 0-37.638919-37.712721H681.485838a37.638919 37.638919 0 0 1-26.642451-10.996468l-116.680648-116.754451a37.786523 37.786523 0 0 0-53.284901 0l-116.680649 116.754451a37.638919 37.638919 0 0 1-26.64245 10.996468H176.681514a37.712721 37.712721 0 0 0-37.712721 37.712721V214.514162a37.638919 37.638919 0 0 1-10.996469 26.642451L11.291676 357.837261a37.565117 37.565117 0 0 0 0 53.284901l116.680648 116.680649a37.638919 37.638919 0 0 1 10.996469 26.64245V719.318486a37.712721 37.712721 0 0 0 37.712721 37.638919H341.702342a37.934126 37.934126 0 0 1 26.642451 10.996469L485.025441 884.708324a37.786523 37.786523 0 0 0 53.284901 0l116.680649-116.75445a37.934126 37.934126 0 0 1 26.64245-10.996469h165.094631a37.712721 37.712721 0 0 0 37.638919-37.638919v-165.09463a37.638919 37.638919 0 0 1 10.996468-26.642451l116.754451-116.680648a37.712721 37.712721 0 0 0-0.147604-53.211099z m-266.276901 183.987892a36.900901 36.900901 0 0 1-52.177873 0L458.678198 306.840216 328.196613 437.321802a36.900901 36.900901 0 0 1-52.177874-52.177874l156.533621-156.607423a36.900901 36.900901 0 0 1 52.251676 0l260.889369 260.963171a36.900901 36.900901 0 0 1 0 52.325477z"  horiz-adv-x="1024" />

    
    <glyph glyph-name="qiche1" unicode="&#58909;" d="M742.3 28.7h-37.9c-48.8 0-88.5 39.7-88.5 88.5 0 1.2 0 2.3 0.1 3.5H400.3c0-1.1 0.1-2.3 0.1-3.4 0-48.8-39.7-88.5-88.5-88.5H274c-48.8 0-88.5 39.7-88.5 88.5 0 3.2 0.2 6.4 0.5 9.6-52.9 16.8-91 66.4-91 123.9v139c0 66.7 50.4 121.8 115.1 129.2L256 645.2c19.3 53 70.1 88.6 126.5 88.6h23.8c13.8 0 25-11.2 25-25s-11.2-25-25-25h-23.8c-35.4 0-67.4-22.4-79.5-55.7l-51.6-141.9c-3.6-9.9-13-16.5-23.5-16.5H225c-44.1 0-80-35.9-80-80v-139.1c0-41.7 32.6-76.7 74.3-79.7 8.4-0.6 15.9-5.4 20-12.7 4.1-7.3 4.3-16.2 0.4-23.7-2.8-5.5-4.3-11.3-4.3-17.4 0-21.2 17.3-38.5 38.5-38.5H312c21.2 0 38.5 17.3 38.5 38.5 0 5.9-1.4 11.7-4.2 17.2-3.9 7.8-3.5 17 1 24.4 4.5 7.4 12.6 11.9 21.3 11.9h279.2c8.7 0 16.8-4.5 21.3-11.9s4.9-16.6 1-24.4c-2.8-5.4-4.2-11.2-4.2-17.2 0-21.2 17.3-38.5 38.5-38.5h37.9c21.2 0 38.5 17.3 38.5 38.5 0 5.9-1.4 11.7-4.2 17.2-3.9 7.8-3.5 17 1 24.4 4.5 7.4 12.6 11.9 21.3 11.9h1c44.1 0 80 35.9 80 80V389.8c0 44.1-35.9 80-80 80H797c-10.5 0-19.9 6.6-23.5 16.5L722 628.1c-12.1 33.3-44 55.7-79.5 55.7h-118c-13.8 0-25 11.2-25 25s11.2 25 25 25h118c56.4 0 107.2-35.6 126.5-88.6L814.9 519c64.7-7.4 115.1-62.5 115.1-129.2v-139.1c0-61.2-42.5-112.6-99.5-126.4 0.2-2.3 0.3-4.7 0.3-7.1 0-48.8-39.7-88.5-88.5-88.5zM700.2 437.2H322c-8.2 0-15.9 4-20.6 10.8s-5.7 15.4-2.8 23.1l58.2 152.1c3.7 9.7 13 16.1 23.4 16.1H645c10.5 0 19.9-6.6 23.5-16.5l55.3-152.1c2.8-7.7 1.7-16.2-3-22.9-4.8-6.6-12.4-10.6-20.6-10.6z m-341.9 50h306.2l-37.1 102.1h-230l-39.1-102.1zM291.3 311.6m-59.1 0a59.1 59.1 0 1 1 118.2 0 59.1 59.1 0 1 1-118.2 0ZM740 311.6m-59.1 0a59.1 59.1 0 1 1 118.2 0 59.1 59.1 0 1 1-118.2 0Z"  horiz-adv-x="1024" />

    
    <glyph glyph-name="tupian" unicode="&#58960;" d="M784 784H240C152 784 80 712 80 624v-480c0-88 72-160 160-160h544c88 0 160 72 160 160V624c0 88-72 160-160 160z m96-640c0-52.8-43.2-96-96-96H240c-52.8 0-96 43.2-96 96V624c0 52.8 43.2 96 96 96h544c52.8 0 96-43.2 96-96v-480zM352 416c52.8 0 96 43.2 96 96s-43.2 96-96 96-96-43.2-96-96 43.2-96 96-96z m0 128c17.6 0 32-14.4 32-32s-14.4-32-32-32-32 14.4-32 32 14.4 32 32 32zM814.4 164.8l-3.2 3.2-177.6 177.6c-25.6 25.6-65.6 25.6-91.2 0l-80-80-36.8 36.8c-25.6 25.6-65.6 25.6-91.2 0l-134.4-134.4c-4.8-6.4-8-14.4-8-24 0-17.6 14.4-32 32-32 9.6 0 16 3.2 22.4 9.6l134.4 134.4 134.4-134.4c6.4-6.4 14.4-9.6 24-9.6 17.6 0 32 14.4 32 32 0 9.6-4.8 17.6-9.6 24l-52.8 52.8 80 80 180.8-180.8c6.4-4.8 12.8-8 20.8-8 17.6 0 32 14.4 32 32 0 8-3.2 16-8 20.8z"  horiz-adv-x="1024" />

    
    <glyph glyph-name="shouqi" unicode="&#58884;" d="M377.4780684453485 106.8888416290281l279.6549224853515 279.65492248535156-278.8075160980225 278.80751609802246z"  horiz-adv-x="1024" />

    
    <glyph glyph-name="dongtai" unicode="&#59012;" d="M582.54 836.601c1.45-1.854 3.171-3.574 4.494-5.554-1.456 1.979-3.044 3.7-4.494 5.554z m-24.719 21.543z m-158.212-90.279l-49.692-101.378a95.412 95.412 0 0 0-4.892-8.721 91.237 91.237 0 0 1 4.892 8.721l49.692 101.378z m398.899 75.077z m0 0M908.207 592.075l-167.064 23.792a94.912 94.912 0 0 0-71.635 51.684l-71.64 143.935c28.179-71.818 1.776-153.545-63.101-195.295-64.871-41.75-150.196-31.93-203.885 23.471a94.742 94.742 0 0 0-52.211-26.432l-166.934-23.793C76.06 584.091 46.5 558.984 35.459 524.64c-11.049-34.341-1.669-71.973 24.202-97.111l121.203-117.373a94.906 94.906 0 0 0 27.491-83.93L180.467 59.69c-5.71-35.518 9.151-71.207 38.374-92.176 29.232-20.969 67.804-23.617 99.618-6.828l149.219 79.307a94.905 94.905 0 0 0 88.291 0l149.62-78.113c32.019-16.677 70.727-13.74 99.864 7.575 29.135 21.315 43.656 57.31 37.467 92.872l-29.077 166.277a94.892 94.892 0 0 0 26.431 84.059l120.543 118.166c25.49 25.252 34.561 62.733 23.43 96.848-11.131 34.118-40.556 59.037-76.04 64.398zM510.238 202.431c-56.224 0.078-101.773 45.684-101.773 101.904a23.732 23.732 0 0 0 11.862 20.551 23.733 23.733 0 0 0 23.729 0 23.732 23.732 0 0 0 11.861-20.551c0-29.998 24.321-54.318 54.321-54.318 30.005 0 54.327 24.32 54.327 54.318a23.724 23.724 0 1 0 47.446 0c0-56.221-45.542-101.826-101.773-101.904zM339.472 649.972l3.435 4.492-3.435-4.492z m0 0M588.219 327.994c-13.066 0-23.654-10.593-23.654-23.659 0-29.998-24.321-54.318-54.327-54.318-30 0-54.321 24.32-54.321 54.318a23.732 23.732 0 0 1-11.861 20.551 23.733 23.733 0 0 1-23.729 0 23.731 23.731 0 0 1-11.862-20.551c0-56.205 45.568-101.771 101.773-101.771 56.21 0 101.773 45.566 101.773 101.771a23.63 23.63 0 0 1-6.978 16.779 23.617 23.617 0 0 1-16.814 6.88z m0 0M562.828 647.355l-2.143 4.284 2.143-4.284z m-101.17 9.453a57.95 57.95 0 0 1-3.176-5.48l-14.773-30.181 14.773 30.181a57.95 57.95 0 0 0 3.176 5.48z m-52.337-103.796l1.272 1.984-1.272-1.984z m92.518 129.681z m49.239-17.234c0.871-0.949 1.666-2.064 2.461-3.093-0.795 1.108-1.271 2.223-2.461 3.093zM402.415 544.515a56.467 56.467 0 0 1 5.161 5.798 58.651 58.651 0 0 0-5.161-5.798z m0 0M569.341 612.649a96.9 96.9 0 0 1-6.513 34.865l-2.143 4.286a59.792 59.792 0 0 1-4.367 7.468c-0.873 1.188-1.828 2.223-2.699 3.336-0.875 1.109-1.59 2.144-2.463 3.093a55.61 55.61 0 0 1-12.389 9.691 56.727 56.727 0 0 1-6.912 3.416 57.516 57.516 0 0 1-14.768 3.889 58.44 58.44 0 0 1-15.249 0 55.976 55.976 0 0 1-40.181-26.046 57.81 57.81 0 0 1-3.176-5.479l-14.773-30.18-29.857-60.752a54.685 54.685 0 0 0-2.939-5.24l-1.272-1.984-2.064-2.699a56.35 56.35 0 0 0-5.161-5.798c27.65-28.224 69.623-36.917 106.207-22.002 36.588 14.913 60.52 50.471 60.561 89.978l0.158 0.158z m0 0M608.707 753.722a161.258 161.258 0 0 1-10.839 58.03l-3.567 7.133a99.997 99.997 0 0 1-7.267 12.429c-1.456 1.978-3.044 3.698-4.494 5.553-1.454 1.846-2.646 3.566-4.099 5.147a92.633 92.633 0 0 1-20.62 16.13 94.07 94.07 0 0 1-11.503 5.684 95.713 95.713 0 0 1-24.578 6.473 97.221 97.221 0 0 1-25.38 0 93.169 93.169 0 0 1-66.876-43.349 96.54 96.54 0 0 1-5.286-9.119l-24.589-50.23-49.692-101.113a91.482 91.482 0 0 0-4.892-8.721l-2.117-3.303-3.435-4.492a93.856 93.856 0 0 0-8.589-9.649c46.02-46.974 115.876-61.442 176.765-36.618 60.895 24.82 100.726 84 100.796 149.754l0.262 0.261z m0 0"  horiz-adv-x="1024" />

    
    <glyph glyph-name="pengyou1" unicode="&#58885;" d="M488.586293 475.891198c-0.851408-4.621927-1.824445-8.149186-3.162371-10.581779-1.216296-2.432593-4.135408-5.230075-8.757335-8.149186-10.825039-6.689631-22.501485-12.041335-35.029338-16.176743-12.527854-4.135408-24.447559-8.757335-36.002375-13.74415s-21.406818-11.554816-30.042523-19.704003c-8.635705-8.149186-13.86578-19.704003-16.055114-34.66445-0.851408-4.621927-1.337926-9.000594-1.581185-13.500891-0.243259-4.378667-0.486519-8.514075-0.973037-12.162964-0.364889-0.851408-0.851408-1.581185-1.216297-2.189334-0.364889-0.608148-0.851408-1.337926-1.216296-2.189334-16.176743 1.216296-32.718375 2.797482-49.381637 4.378668-16.663262 1.702815-31.988597 3.648889-45.976007 5.594963-13.987409 2.067704-25.785485 4.135408-35.272597 6.203112-9.608742 2.067704-15.568595 4.135408-18.122818 6.203113-3.770519 2.919112-6.568001 11.676446-8.514075 26.272003-1.824445 14.595558-1.216296 33.569783 2.189333 56.922675 2.067704 12.892743 7.419408 22.866374 16.055114 29.677634 8.635705 6.93289 18.730966 12.284594 30.285782 16.176743 11.676446 3.892149 23.596152 7.662668 36.002376 10.946668 12.284594 3.40563 23.231263 7.905927 32.840004 13.744151 7.419408 4.986816 13.257632 9.608742 17.149781 13.74415 3.892149 4.135408 6.81126 8.514075 8.514075 12.892742 1.702815 4.378667 2.432593 8.757335 2.432593 13.500891 0 4.621927-0.243259 9.608742-0.608148 15.082076-0.851408 8.392446-3.648889 14.838817-8.514076 19.704003-4.743556 4.743556-10.095261 9.608742-16.055113 14.595558-3.40563 2.067704-6.203112 5.351704-8.514075 9.973631-2.189334 4.621927-4.257038 9.243853-5.959853 13.74415-1.702815 4.986816-3.40563 10.581779-4.986816 16.906521-2.432593 0.851408-4.986816 2.067704-7.419408 3.770519-2.067704 1.702815-4.257038 4.135408-6.568001 7.419409-2.189334 3.40563-4.500297 7.905927-6.568001 13.74415-2.067704 5.838223-2.919112 11.311557-2.432593 16.541632 0.364889 5.230075 1.459556 9.608742 3.162371 13.500891 1.702815 4.621927 3.892149 8.392446 6.93289 11.189927-0.364889 13.379261 0.243259 26.880152 1.824444 40.624302 1.702815 11.189928 4.378667 23.352892 8.149187 36.245635 3.770519 12.892743 9.487112 24.569189 16.906521 35.029339 6.689631 9.973631 14.230669 18.122817 22.501485 24.447559 8.392446 6.203112 16.784891 11.189928 25.298966 14.595557 8.635705 3.648889 17.14978 5.959853 26.028745 7.17615 8.757335 1.216296 17.27141 1.824445 25.663855 1.824444 20.920299 0 39.651265-4.378667 56.314527-13.136002 16.663262-8.757335 29.191115-18.122817 37.583561-28.096448 5.351704-7.05452 8.757335-13.74415 10.33852-19.704003 1.459556-6.081482 3.40563-13.014372 5.959853-21.041929-7.905927-4.621927-16.420002-11.311557-25.298967-20.312151-9.000594-9.000594-16.784891-18.001188-23.474522-27.245041-8.392446-11.676446-14.595558-24.569189-18.730966-38.799857s-7.297779-27.245041-9.487112-39.408006c-2.067704-14.595558-3.162371-29.191115-3.162371-43.786673-3.40563-3.770519-5.838223-7.905927-7.419408-12.527854-1.702815-4.135408-2.797482-9.000594-3.162371-14.595557-0.364889-5.594964 0.364889-11.798076 2.432593-18.487707 2.067704-7.05452 4.378667-12.527854 6.93289-16.176743 2.432593-3.770519 4.743556-6.689631 6.932889-8.757335 2.432593-2.432593 4.986816-4.135408 7.419409-4.986815 1.702815-6.689631 3.40563-12.892743 4.986816-18.730966 1.702815-4.986816 3.648889-10.095261 5.959852-15.325335 2.189334-5.230075 5.108445-9.000594 8.514076-11.554817 2.919112-2.432593 5.230075-4.621927 6.932889-6.203112s2.919112-3.162371 4.013779-4.621926 1.702815-3.40563 1.824444-5.959853c0.364889-2.310963 0.851408-5.716593 1.581186-9.852002zM822.094786 360.82955200000004c1.702815-5.838223 2.919112-12.892743 4.013778-21.163558 1.094667-8.392446 1.581185-16.784891 1.581185-25.298967 0-8.635705-0.608148-16.541632-1.824444-24.08267-1.216296-7.419408-3.162371-13.136002-5.594964-16.906521-1.702815-2.432593-6.568001-4.986816-14.595558-7.419409-8.149186-2.432593-18.244447-4.743556-30.285782-6.93289-12.041335-2.067704-25.420596-4.013778-40.137784-5.959852-14.595558-1.824445-29.312745-3.40563-44.151561-4.621927-14.838817-1.216296-29.069486-2.189334-42.813636-3.162371-13.74415-0.851408-25.907115-1.216296-36.245635-1.216296s-22.379855 0.364889-36.002376 1.216296c-13.62252 0.851408-27.73156 1.824445-42.205487 3.162371-14.595558 1.216296-28.947856 2.675852-43.178525 4.013779-14.230669 1.459556-27.245041 3.162371-39.164746 4.986815-11.919705 1.824445-21.893337 3.770519-30.042523 5.594964-8.149186 1.824445-13.257632 3.648889-15.325336 5.351704-3.40563 2.919112-6.081482 11.676446-8.149186 26.272004-2.067704 14.595558-1.459556 33.448153 1.824444 56.314527 2.067704 13.379261 7.419408 23.352892 16.055114 30.042523s18.730966 12.041335 30.285782 16.176743c11.676446 4.135408 23.596152 7.905927 36.002376 10.946668 12.284594 3.162371 23.231263 7.905927 32.840004 14.109039 7.419408 4.986816 13.257632 9.608742 17.149781 13.74415 3.892149 4.135408 6.93289 8.392446 8.757334 12.527854 1.824445 4.135408 2.919112 8.635705 2.919112 13.136002 0 4.621927-0.243259 9.730372-0.608148 15.568595-0.851408 8.392446-3.770519 14.838817-8.757335 19.704002-4.986816 4.743556-10.33852 9.487112-16.176743 14.10904-2.919112 2.432593-5.473334 6.081482-7.905927 10.581779-2.189334 4.621927-4.257038 9.243853-5.959853 13.74415-1.702815 4.986816-3.40563 10.581779-4.986815 16.906521-2.432593 0.851408-4.986816 2.067704-7.419409 3.770519-2.067704 1.702815-4.257038 4.135408-6.568001 7.419408-2.189334 3.40563-4.500297 7.905927-6.568001 13.744151-2.067704 5.838223-2.919112 11.311557-2.432593 16.541632 0.364889 5.230075 1.459556 9.487112 3.162371 12.892742 1.702815 4.135408 3.892149 7.905927 6.93289 11.189928-0.364889 13.379261 0.243259 26.880152 1.824445 40.624302 1.702815 11.676446 4.257038 23.839411 7.905927 36.610524s9.000594 24.447559 16.541632 35.272597c6.689631 9.973631 14.230669 18.122817 22.501484 24.44756 8.392446 6.203112 16.906521 11.189928 25.663856 14.595557 8.757335 3.648889 17.514669 5.959853 26.272004 7.176149 8.757335 1.216296 17.028151 1.824445 25.055707 1.824445 21.163559 0 40.259413-4.378667 56.922675-13.136002s28.947856-18.122817 36.975413-28.096448c9.243853-11.189928 16.055113-23.839411 20.312151-37.826821 4.378667-13.987409 7.662668-27.001782 9.608742-39.164746 2.067704-14.230669 2.919112-28.461337 2.432593-42.570377 2.067704-1.702815 3.892149-3.892149 5.594964-6.932889 1.216296-2.432593 2.432593-5.716593 3.40563-9.608743 1.094667-3.892149 1.216296-8.757335 0.364889-14.595557-0.851408-7.419408-2.432593-13.62252-4.986816-18.122818-2.432593-4.621927-4.986816-8.149186-7.419408-10.581779-2.919112-2.919112-6.203112-4.743556-9.973631-5.594964-1.702815-6.203112-3.40563-11.919705-4.986816-16.906521-1.702815-4.621927-3.770519-9.243853-6.203112-13.74415-2.432593-4.621927-5.230075-7.905927-8.149186-9.973631-3.40563-2.919112-6.324742-5.351704-9.000594-7.419408-2.797482-2.067704-5.108445-4.257038-7.176149-6.568001-2.067704-2.189334-3.770519-4.865186-5.351705-7.905927-1.459556-2.919112-2.675852-6.446371-3.40563-10.58178-0.851408-5.351704-1.216296-10.946668-0.973037-16.541632 0.243259-5.594964 1.581185-11.189928 4.013778-16.541632 2.432593-5.351704 6.568001-10.581779 12.162965-15.568595 5.594964-4.986816 13.500891-9.487112 23.474522-13.136001 8.757335-3.770519 18.487706-7.05452 29.069486-9.608743 10.581779-2.797482 20.920299-5.959853 30.650671-9.608742 9.730372-3.770519 18.609336-8.635705 26.272004-14.473928 7.297779-6.081482 12.892743-13.62252 16.176743-22.744744zM256.030407 150.288633H350.658273v-218.933365c0.729778-19.704003-9.852001-29.677634-31.988597-29.677634h-27.366671c0 1.581185-0.364889 4.621927-1.094667 9.122223-0.729778 6.081482-1.581185 9.852001-2.310963 11.433187 4.621927-0.729778 14.109039-1.094667 28.461337-1.094667 10.581779-0.729778 15.568595 3.40563 14.838817 12.527854v60.449935h-54.733341c-1.581185-38.07008-10.703409-71.396603-27.36667-100.344459-1.581185 0.729778-3.770519 2.310963-6.811261 4.621926-5.351704 3.770519-9.487112 6.446371-12.527853 8.027557 18.244447 24.325929 27.001782 59.355268 26.272003 104.966386V150.288633z m20.433781-18.244447v-51.327711h54.733341v51.327711h-54.733341z m0-68.477492v-51.327711h54.733341v51.327711h-54.733341z m103.871719 86.721939h106.061052V-69.73939900000005c0.729778-20.55541-10.21689-31.13719-33.083264-31.988597H423.636061c0 5.351704-0.729778 12.527854-2.310963 21.650077 6.81126-0.729778 17.14978-1.094667 30.772301-1.094667 10.581779-0.729778 15.568595 3.40563 14.838817 12.527854v62.760898h-67.261195c0-39.529635-9.852001-72.977788-29.677634-100.344459-2.310963 2.310963-6.081482 5.351704-11.433187 9.122223-2.310963 2.310963-4.135408 3.770519-5.716593 4.621927 18.974225 21.285188 28.096449 57.044305 27.36667 107.155719V150.288633z m19.339114-18.244447v-50.233045h67.261195v50.233045h-67.261195z m0-68.477492v-51.327711h67.261195v51.327711h-67.261195zM612.891792 165.00581999999997l23.961041-3.40563c-2.310963-13.74415-4.621927-27.001782-6.81126-39.894524h160.794393v-20.555411h-164.200023c-3.040741-14.473928-6.446371-28.096449-10.216891-41.11082h144.86091v-20.555411c-12.162965-36.488894-32.353486-66.531417-60.449935-90.127568 25.785485-15.203706 57.044305-25.420596 93.533199-30.772301-6.81126-10.581779-12.527854-18.609336-17.14978-23.961041-36.488894 11.433187-67.626084 25.055707-93.533199 41.110821-29.677634-16.663262-63.125787-31.13719-100.344459-43.300154-4.621927 6.81126-9.487112 14.109039-14.838817 21.650077 39.529635 9.852001 71.883122 22.014966 96.938829 36.488894-24.325929 22.866374-42.205488 52.422378-53.638674 88.911272h-1.094667c-18.244447-55.463119-43.665043-100.344459-76.383419-134.52239-4.621927 6.081482-9.487112 12.162965-14.838817 18.244447 40.259413 40.259413 68.477491 99.614681 84.410975 177.944174h-74.072455v20.555411h77.599715c2.067704 13.74415 3.892149 28.096449 5.473334 43.300154z m123.210833-125.400166h-103.750089C643.785723 7.617057000000045 660.813873-17.43865100000005 683.680247-35.68309799999997c25.785485 19.825632 43.300154 44.88134 52.422378 75.288752z"  horiz-adv-x="1024" />

    
    <glyph glyph-name="fenxiang3" unicode="&#59172;" d="M880 256v-144c0-35.2-28.8-64-64-64H208c-35.2 0-64 28.8-64 64V656c0 35.2 28.8 64 64 64h208c17.6 0 32 14.4 32 32s-14.4 32-32 32H208c-70.4 0-128-57.6-128-128v-544c0-70.4 57.6-128 128-128h608c70.4 0 128 57.6 128 128V256c0 17.6-14.4 32-32 32s-32-14.4-32-32zM835.2 720H624c-17.6 0-32 14.4-32 32s14.4 32 32 32h288c9.6 0 17.6-3.2 22.4-9.6 6.4-4.8 9.6-12.8 9.6-22.4v-288c0-17.6-14.4-32-32-32s-32 14.4-32 32V675.2L403.2 196.8c-12.8-12.8-32-12.8-44.8 0s-12.8 32 0 44.8L835.2 720z"  horiz-adv-x="1024" />

    
    <glyph glyph-name="tubiaozhizuomoban-" unicode="&#58924;" d="M759.15 710.69a50.64 50.64 0 0 0 50.31-45l62.22-552.12a50.64 50.64 0 0 0-50.32-56.3H202.64a50.64 50.64 0 0 0-50.32 56.3l62.22 552.12a50.64 50.64 0 0 0 50.31 45h494.3m0 20h-494.3A70.57 70.57 0 0 1 194.67 668l-62.22-552.15a70.63 70.63 0 0 1 70.19-78.54h618.72a70.63 70.63 0 0 1 70.19 78.54L829.33 668a70.58 70.58 0 0 1-70.18 62.72zM493.23 377.93c-95.37 0-173 77.59-173 173v77.63a10 10 0 0 0 20 0v-77.67c0-84.35 68.62-153 153-153s153 68.61 153 153v77.67a10 10 0 0 0 20 0v-77.67c-0.03-95.37-77.63-172.96-173-172.96z"  horiz-adv-x="1024" />

    
    <glyph glyph-name="wenjianjia-kong" unicode="&#58990;" d="M856.48730469 658.21875H441.73144531c-4.78340332 0-7.31992676 1.0026123-10.44430663 4.12699219l-38.5637256 38.56372558-0.28792968 0.27764649C384.08552246 709.06404785 377.22319824 713.0625 362.89355469 713.0625H170.94042969c-23.62565918 0-42.84667969-17.68196777-42.84667969-39.41894531v-575.859375c0-22.82356933 20.02311035-42.84667969 42.84667969-42.84667969h685.546875c21.73697754 0 39.41894531 19.22102051 39.41894531 42.84667969V618.79980469c0 22.84070801-16.5782373 39.41894531-39.41894531 39.41894531z m-685.546875 27.421875h191.953125c5.99339355 0 6.40472168-0.3239209 10.58312988-4.26410156l38.41976074-38.42147461C420.1915625 634.65993165 429.67267578 630.796875 441.73144531 630.796875h414.75585938c7.62328125 0 11.99707031-4.37378906 11.99707031-11.99707031v-72.62683594A40.93571777 40.93571777 0 0 1 854.7734375 548.53125H169.2265625a40.93571777 40.93571777 0 0 1-13.7109375-2.35828125V673.64355469c0 7.40904785 8.0071875 11.99707031 15.42480469 11.99707031z m697.54394531-587.85644531c0-7.41761719-4.58802246-15.42480469-11.99707031-15.42480469H170.94042969c-7.64041993 0-15.42480469 7.78438476-15.42480469 15.42480469V507.3984375c0 7.55986817 6.15106933 13.7109375 13.7109375 13.7109375h685.546875c7.55986817 0 13.7109375-6.15106933 13.7109375-13.7109375v-409.61425781z"  horiz-adv-x="1024" />

    
    <glyph glyph-name="arrLeft-fill-copy" unicode="&#58882;" d="M300.65393814-51.36657065999998l439.36305304 439.36305302-438.03170133 438.03170133z"  horiz-adv-x="1024" />

    
    <glyph glyph-name="gonggao" unicode="&#58888;" d="M954.59202 896h-812.12C62.75202 896 0.00002 830.03 0.00002 752.65V121.62a143.35 143.35 0 0 1 142.472-143.423h122.506l-25.599-88.936c-2.925-5.704 0-11.482 2.853-14.334 2.852-2.853 5.705-2.853 11.41-2.853h5.63l233.676 106.123h461.644c79.72 0 142.472 65.97 142.472 143.35V752.65c0 77.38-65.53 143.35-142.472 143.35zM324.87702 417.022H193.74202a43.956 43.956 0 0 0-42.713 43.005c0 22.965 19.967 43.004 42.713 43.004h128.283c22.746 0 42.712-20.04 42.712-43.004 0-22.966-17.114-43.005-39.86-43.005z m293.502 0H490.02202a43.956 43.956 0 0 0-42.712 43.005c0 22.965 19.966 43.004 42.712 43.004h128.284c22.745 0 42.712-20.04 42.712-43.004a43.956 43.956 0 0 0-42.712-43.005z m282.092 0H792.22702a43.956 43.956 0 0 0-42.786 43.005c0 22.965 19.894 43.004 42.713 43.004h108.243c22.82 0 42.786-20.04 42.786-43.004a42.127 42.127 0 0 0-42.712-43.005z"  horiz-adv-x="1097" />

    
    <glyph glyph-name="kefu" unicode="&#58893;" d="M98.9 38.2c-4.2 0-8.3 1.5-11.6 4.5-6 5.4-7.4 14.3-3.3 21.3 33.6 58.5 69.7 129.9 73.9 151.3-60.4 55.6-93.6 125-93.6 195.9 0 176.2 201 319.6 448.1 319.6s448.1-143.4 448.1-319.6-201-319.6-448.1-319.6c-85.6 0-168.6 17.2-240.3 49.6-19.8-4.4-98.8-54.3-163.1-99.8-3.2-2.2-6.7-3.2-10.1-3.2z m413.4 658.1c-228.1 0-413.7-127.9-413.7-285.2 0-63.6 30-123.9 86.7-174.4 8.5-7.5 20.6-18.3-36.1-125.9 111 73.6 126.9 66.3 134.3 62.9 67.9-31.3 147.1-47.8 228.9-47.8 228.1 0 413.7 127.9 413.7 285.2S740.4 696.3 512.3 696.3zM368 367.2c-28.4 0-51.5 23.1-51.5 51.5s23.1 51.5 51.5 51.5 51.5-23.1 51.5-51.5-23.1-51.5-51.5-51.5z m0 82.5c-17.1 0-30.9-13.9-30.9-30.9 0-17.1 13.9-30.9 30.9-30.9 17.1 0 30.9 13.9 30.9 30.9S385 449.7 368 449.7zM512.3 367.2c-28.4 0-51.5 23.1-51.5 51.5s23.1 51.5 51.5 51.5 51.5-23.1 51.5-51.5-23.1-51.5-51.5-51.5z m0 82.5c-17.1 0-30.9-13.9-30.9-30.9 0-17.1 13.9-30.9 30.9-30.9 17.1 0 30.9 13.9 30.9 30.9s-13.9 30.9-30.9 30.9zM656.6 367.2c-28.4 0-51.5 23.1-51.5 51.5s23.1 51.5 51.5 51.5 51.5-23.1 51.5-51.5c0.1-28.4-23.1-51.5-51.5-51.5z m0 82.5c-17.1 0-30.9-13.9-30.9-30.9 0-17.1 13.9-30.9 30.9-30.9s30.9 13.9 30.9 30.9-13.8 30.9-30.9 30.9z"  horiz-adv-x="1024" />

    
    <glyph glyph-name="dingdanguanli-" unicode="&#58890;" d="M826.3802209-83.19440578000001H197.6197791C125.88892084-83.19440578000001 67.02843186-27.851817770000025 67.02843186 40.79015184000002V727.20984816c0 68.64196964 58.60308158 123.81295271 130.59134724 123.8129527h111.54320064v-51.48147721h-111.54320064c-43.58765071 0-79.10987001-32.43333065-79.10986999-72.33147549v-686.41969632c0-39.89814483 35.43641682-72.33147549 79.10986999-72.33147549h628.84624427c43.58765071 0 79.10987001 32.43333065 79.10987 72.33147549V727.20984816c0 39.89814483-35.43641682 72.33147549-79.10987 72.33147549h-103.992584v51.48147721h103.90678153C898.11107916 851.19440578 956.97156814 795.85181777 956.97156814 727.20984816v-686.41969632c0-68.64196964-58.86048895-123.98455764-130.59134724-123.98455762zM598.91789404 799.71292858H437.35185803a25.7407386 25.7407386 0 1 0 0 51.4814772h161.56603601a25.7407386 25.7407386 0 0 0 0-51.4814772zM769.40738611 512.7036930300001H276.4722417a25.7407386 25.7407386 0 0 0 0 51.48147725H769.40738611a25.7407386 25.7407386 0 0 0 0-51.48147725zM769.40738611 343.67284285000005H276.4722417a25.7407386 25.7407386 0 1 0 0 51.48147721H769.40738611a25.7407386 25.7407386 0 1 0 0-51.48147721zM769.40738611 174.72779508999997H276.4722417a25.7407386 25.7407386 0 0 0 0 51.48147722H769.40738611a25.7407386 25.7407386 0 0 0 0-51.48147722z"  horiz-adv-x="1024" />

    
    <glyph glyph-name="sousuo" unicode="&#58891;" d="M492.032-18.944c-57.856 0-114.176 11.264-167.936 32.768-55.296 22.528-104.96 55.296-147.456 97.792s-75.776 92.16-97.792 147.456c-21.504 53.248-32.768 110.08-32.768 167.936 0 57.856 11.264 114.176 32.768 167.936 22.528 55.296 55.296 104.96 97.792 147.456s92.16 75.776 147.456 97.792c53.248 21.504 110.08 32.768 167.936 32.768 57.856 0 114.176-10.752 167.936-32.768 55.296-22.528 104.96-55.296 147.456-98.304 42.496-42.496 75.776-92.16 97.792-147.456 21.504-53.248 32.768-110.08 32.768-167.936 0-57.856-11.264-114.176-32.768-167.936C883.2 204.288 849.92 154.624 807.424 112.128s-92.16-75.776-147.456-97.792c-53.76-22.016-110.08-33.28-167.936-33.28z m0 826.368c-101.376 0-196.608-39.424-268.8-111.104-147.968-147.968-147.968-389.12 0-537.088 71.68-71.68 166.912-111.104 268.8-111.104s196.608 39.424 268.8 111.104c71.68 71.68 111.104 166.912 111.104 268.8 0 101.376-39.424 196.608-111.104 268.8-72.192 70.656-167.424 110.592-268.8 110.592z m0 0M944.128-106.496c-8.704 0-16.896 3.072-23.552 9.728l-183.808 183.808c-12.8 12.8-12.8 33.792 0 47.104 12.8 12.8 33.792 12.8 47.104 0L967.68-49.664c12.8-12.8 12.8-33.792 0-47.104-6.656-6.656-15.36-9.728-23.552-9.728z m0 0"  horiz-adv-x="1024" />

    
    <glyph glyph-name="lianxiren" unicode="&#59250;" d="M668.416 843.136c0 58.752-483.904 157.44-375.04-279.488-45.76-14.912-31.872-103.168 18.368-121.088 9.6-3.392 1.984-57.92 64.32-121.088 25.792-26.24 3.584-144.256-82.624-158.4C207.168 148.992 48.64 85.888 65.216-64h910.592s51.008 163.328-197.184 227.072c-132.032 33.92-115.264 153.6-100.992 167.68 14.208 14.144 36.48 39.68 55.04 102.528 39.744 22.4 74.816 95.36 27.52 130.368 18.368 71.488 68.736 273.024-91.776 279.488z"  horiz-adv-x="1024" />

    
    <glyph glyph-name="wulumuqishigongandashujuguanlipingtai-ico-" unicode="&#59369;" d="M266.24 628.48a248.32 244.48 0 1 1 496.64 0 248.32 244.48 0 1 1-496.64 0ZM628.48 302.72H421.76a320 320 0 0 1-320-315.52v-20.48c0-71.04 143.36-71.04 320-71.04h206.72c177.28 0 320 0 320 71.04v20.48a320 320 0 0 1-320 315.52z"  horiz-adv-x="1024" />

    
    </font>
</defs>
</svg>
